<svg width="280" height="258" viewBox="0 0 280 258" fill="none" xmlns="http://www.w3.org/2000/svg">
<g clip-path="url(#clip0_15_751)">
<path d="M16.205 216.782C0.0256617 196.842 -4.50916 168.096 4.73983 144.147C11.3051 127.161 23.8719 113.3 36.1698 99.8625C50.5237 84.1827 64.8775 68.503 79.2314 52.8232C91.4588 39.4622 103.878 25.9473 119.148 16.2051C138.383 3.93933 161.761 -1.7292 184.468 0.467754C207.174 2.66471 229.066 12.7272 245.444 28.6055C277.265 59.4589 285.38 108.714 276.791 152.192C269.605 188.599 250.402 224.417 218.165 242.793C198.572 253.963 175.545 257.96 152.993 257.813C132.279 257.678 109.925 255.545 90.0753 249.377C74.1522 244.426 56.8327 243.722 41.6974 236.58C31.8912 231.955 23.0457 225.217 16.205 216.782Z" fill="#EEF6F5"/>
<path d="M43.2264 145.707C86.7429 157.717 132.367 162.072 177.369 158.504C155.547 189.633 132.674 215.446 111.633 247.055C109.417 250.386 103.396 255.638 99.6876 257.143C96.9846 258.239 93.9678 258.091 91.0535 257.931C81.4522 257.4 71.8445 256.861 62.2433 256.33C53.8077 255.862 45.2569 255.375 37.0775 253.076C33.7661 252.147 29.8013 251.712 29.5579 247.888C29.2889 243.59 30.8069 238.472 31.3834 234.187C33.9006 215.382 36.4178 196.57 38.935 177.765C40.3697 167.081 41.7981 156.397 43.2264 145.707Z" fill="white"/>
<path d="M194.509 128.913C194.913 128.759 195.335 128.612 195.764 128.663C196.194 128.708 196.623 129.002 196.725 129.451C196.841 129.982 196.469 130.488 196.085 130.853C195.239 131.654 194.234 132.218 193.228 132.762C190.506 134.235 187.732 135.612 184.927 136.893C184.831 136.477 184.415 135.504 184.543 135.1C184.671 134.709 185.459 134.255 185.753 134.011C186.65 133.275 187.579 132.589 188.539 131.962C190.442 130.713 192.44 129.752 194.509 128.913Z" fill="#39706D"/>
<path d="M184.857 125.044C185.606 123.686 186.496 122.328 187.829 121.54C188.475 121.163 189.449 121.002 189.859 121.63C190.198 122.149 189.897 122.834 189.603 123.372C187.822 126.62 186.035 129.861 184.254 133.108C183.787 132.852 182.333 132.371 182.109 131.885C181.872 131.372 182.563 130.13 182.749 129.624C183.345 128.042 184.235 126.6 184.857 125.044Z" fill="#39706D"/>
<path d="M176.76 121.745C176.792 121.175 176.85 120.592 177.119 120.086C177.382 119.58 177.907 119.171 178.477 119.209C179.015 119.241 179.47 119.664 179.694 120.151C179.918 120.637 179.963 121.188 179.995 121.726C180.174 124.916 180.091 128.112 180.008 131.302C180.008 131.359 177.523 131.705 177.324 131.513C176.914 131.11 177.017 128.926 176.959 128.336C176.754 126.146 176.626 123.942 176.76 121.745Z" fill="#39706D"/>
<path d="M166.288 126.159C166.115 125.556 165.974 124.916 166.09 124.301C166.205 123.68 166.621 123.084 167.223 122.918C167.755 122.777 168.331 122.988 168.748 123.34C169.17 123.693 169.471 124.167 169.76 124.628C171.611 127.58 173.462 130.533 175.313 133.486C174.736 133.902 174.166 134.338 173.577 134.735C172.937 135.164 172.796 135.126 172.187 134.645C171.258 133.902 170.394 133.063 169.619 132.16C168.126 130.418 166.922 128.381 166.288 126.159Z" fill="#39706D"/>
<path d="M171.937 134.466C173.532 132.243 176.126 130.764 178.855 130.533C180.584 130.386 182.416 130.757 183.755 131.865C185.311 133.153 185.971 135.222 186.298 137.22C186.695 139.673 186.682 142.229 185.907 144.586C185.126 146.943 183.518 149.082 181.289 150.184C179.06 151.286 176.216 151.209 174.224 149.723C171.816 147.917 171.508 145.06 170.631 142.415C169.747 139.75 170.285 136.778 171.937 134.466Z" fill="#51A09B"/>
<path d="M171.021 140.903C171.861 140.628 172.77 140.647 173.641 140.794C175.755 141.147 177.734 142.261 179.137 143.888C180.539 145.515 181.347 147.635 181.385 149.781C181.404 150.818 181.052 152.086 180.046 152.323C179.355 152.49 178.669 152.08 178.08 151.67C175.543 149.915 173.186 147.91 171.047 145.694C169.535 144.144 168.158 141.838 171.021 140.903Z" fill="#39706D"/>
<path d="M163.316 145.028C165.84 143.19 168.754 141.569 171.873 141.678C174.544 141.768 177.106 143.203 178.682 145.361C180.258 147.52 180.841 150.344 180.373 152.97C179.483 157.941 175.223 161.579 170.913 164.218C165.955 167.254 160.549 169.56 154.932 171.046C152.312 171.737 149.782 171.449 148.7 168.644C148.027 166.895 148.021 164.461 148.706 162.706C150.339 158.517 153.728 154.239 156.719 150.953C158.711 148.756 160.927 146.77 163.316 145.028Z" fill="#51A09B"/>
<path d="M178.394 153.034C177.279 154.93 176.075 156.698 174.512 158.261C172.962 159.817 171.207 161.156 169.343 162.309C165.27 164.839 160.735 166.37 156.36 168.253C156.27 168.291 156.335 168.439 156.424 168.413C161.113 166.998 165.795 165.153 169.939 162.52C173.481 160.266 177.029 157.159 178.759 153.246C178.868 153.002 178.535 152.791 178.394 153.034Z" fill="#4C5980"/>
<path d="M173.654 155.628C173.129 156.026 172.757 156.596 172.322 157.082C171.867 157.588 171.38 158.062 170.887 158.53C169.881 159.472 168.792 160.311 167.608 161.022C167.454 161.118 167.588 161.348 167.748 161.265C168.985 160.618 170.157 159.837 171.22 158.934C171.752 158.485 172.245 157.986 172.712 157.473C173.167 156.98 173.68 156.461 173.91 155.821C173.955 155.686 173.769 155.539 173.654 155.628Z" fill="#4C5980"/>
<path d="M184.203 135.606C184.101 135.363 183.774 135.452 183.806 135.715C183.941 136.676 184.165 137.604 184.216 138.578C184.261 139.443 184.235 140.307 184.139 141.166C183.941 143.023 183.377 144.855 182.506 146.508C182.423 146.668 182.653 146.809 182.749 146.649C183.755 144.983 184.402 143.164 184.664 141.236C184.908 139.443 184.895 137.303 184.203 135.606Z" fill="#4C5980"/>
<path d="M49.8301 113.073C50.4834 112.791 51.2585 112.548 51.8734 112.9C52.469 113.239 52.674 114.04 52.5075 114.706C52.3409 115.372 51.8862 115.923 51.4186 116.423C49.1191 118.863 46.0959 120.605 42.8293 121.367C42.3297 120.605 41.5739 119.363 42.0607 118.556C42.5667 117.723 43.6556 116.961 44.405 116.352C46.0511 115.02 47.883 113.906 49.8301 113.073Z" fill="#39706D"/>
<path d="M36.5523 108.666C36.6676 107.424 36.8981 106.078 37.8141 105.227C38.1728 104.894 38.6852 104.65 39.1463 104.817C39.71 105.015 39.9214 105.688 40.0239 106.277C40.6772 109.902 40.2288 113.617 39.7805 117.275C39.7805 117.287 37.1223 117.563 36.9238 117.467C36.3665 117.191 36.4946 115.532 36.4562 114.93C36.3281 112.842 36.3601 110.741 36.5523 108.666Z" fill="#39706D"/>
<path d="M27.6364 109.499C27.5403 108.922 27.4762 108.327 27.6492 107.769C27.8157 107.212 28.2641 106.706 28.8405 106.636C29.6604 106.533 30.3137 107.289 30.7685 107.981C32.7797 111.049 34.2593 114.469 35.1111 118.043C34.0543 118.453 33.0423 119.267 32.1264 118.383C31.3193 117.601 30.6276 116.673 30.0255 115.725C28.8533 113.88 27.9118 111.683 27.6364 109.499Z" fill="#39706D"/>
<path d="M21.3721 118.018C20.8725 117.499 20.3986 116.922 20.1808 116.237C19.963 115.552 20.0527 114.725 20.5651 114.219C21.0583 113.733 21.8461 113.643 22.5122 113.822C23.1848 114.002 23.7677 114.412 24.3249 114.821C26.8934 116.705 29.3017 118.793 31.71 120.881C31.7484 120.913 31.1528 122.52 31.0567 122.636C30.698 123.058 30.4866 122.924 29.8974 122.796C28.8213 122.559 27.7709 122.219 26.7588 121.777C24.7412 120.887 22.8902 119.612 21.3721 118.018Z" fill="#39706D"/>
<path d="M29.9806 127.068C29.0839 124.801 29.4106 122.11 30.7236 120.054C32.0431 117.998 34.2913 116.602 36.6996 116.211C38.128 115.981 39.678 116.109 40.9014 116.884C41.9006 117.518 42.6115 118.543 43.0471 119.651C43.4762 120.753 43.6556 121.944 43.7581 123.122C43.8541 124.192 43.8798 125.332 43.3673 126.274C42.8998 127.132 42.0543 127.709 41.2408 128.253C40.0559 129.041 38.8709 129.829 37.686 130.616C34.6884 132.608 31.1464 130.014 29.9806 127.068Z" fill="#51A09B"/>
<path d="M35.9182 128.753C36.8341 127.087 38.4674 125.832 40.3121 125.383C41.4202 125.114 42.6372 125.134 43.6364 125.685C44.6356 126.235 45.3401 127.388 45.1416 128.509C44.943 129.636 43.963 130.437 43.0535 131.129C41.9582 131.962 40.8565 132.794 39.6139 133.383C38.7108 133.813 36.1039 134.831 35.3161 133.774C34.4386 132.583 35.3033 129.867 35.9182 128.753Z" fill="#39706D"/>
<path d="M37.5771 142.626C36.2256 139.769 35.0791 136.676 35.3289 133.524C35.5787 130.373 37.5707 127.171 40.6387 126.408C42.8229 125.864 45.1736 126.632 46.9798 127.984C48.7796 129.335 50.1183 131.206 51.3225 133.108C55.7869 140.147 58.8997 148.045 60.437 156.237C60.706 157.685 60.9174 159.247 60.264 160.567C56.5747 168.016 43.1431 152.003 41.1575 149.012C39.8125 146.975 38.6211 144.836 37.5771 142.626Z" fill="#51A09B"/>
<path d="M52.6356 156.135C51.995 155.334 50.9894 154.725 50.2208 154.046C49.4202 153.342 48.6323 152.612 47.8765 151.856C46.3521 150.319 44.9494 148.666 43.6876 146.905C41.1704 143.395 39.2745 139.494 37.8077 135.44C37.7628 135.318 37.5771 135.363 37.6091 135.491C38.7492 139.782 40.8117 143.773 43.425 147.366C44.6932 149.114 46.1023 150.767 47.6267 152.291C48.4146 153.079 49.2344 153.835 50.0991 154.546C50.8357 155.148 51.6556 155.942 52.5523 156.282C52.642 156.314 52.6868 156.192 52.6356 156.135Z" fill="#4C5980"/>
<path d="M49.5547 148.871C49.2984 148.506 48.9205 148.224 48.5875 147.93C48.2416 147.622 47.8957 147.315 47.5691 146.988C46.8901 146.322 46.256 145.617 45.6667 144.874C44.4754 143.375 43.4186 141.736 42.5667 140.019C42.509 139.904 42.3041 139.987 42.3489 140.109C43.0663 141.922 43.995 143.6 45.1928 145.137C45.7948 145.906 46.4418 146.636 47.1271 147.321C47.7612 147.955 48.5042 148.794 49.3561 149.121C49.497 149.179 49.6379 148.993 49.5547 148.871Z" fill="#4C5980"/>
<path d="M86.73 235.392C74.8293 224.964 65.702 211.398 60.5331 196.442C55.3641 181.486 54.2817 165.825 57.2024 150.274C57.7468 147.392 61.2184 144.881 64.011 143.984C66.8037 143.087 69.7821 143.03 72.7156 142.985C89.497 142.761 106.323 142.921 122.989 144.9C129.503 145.675 136.088 146.751 142.025 149.55C145.35 151.119 149.359 154.021 151.652 156.903C153.67 173.467 148.367 189.986 139.214 203.936C130.061 217.886 115.861 228.442 99.8605 233.188C95.5499 234.456 91.1624 236.09 86.73 235.392Z" fill="#51A09B"/>
<path d="M145.51 174.966C134.993 171.084 124.11 168.4 113.049 166.645C102.058 164.897 90.8806 164.134 79.7549 164.365C76.6484 164.429 73.5419 164.576 70.4418 164.801C67.3289 165.025 64.1135 165.179 61.0839 165.96C60.7508 166.043 60.8341 166.543 61.1672 166.549C63.9534 166.568 66.7396 166.165 69.5195 165.96C72.2545 165.755 74.9959 165.62 77.7437 165.537C83.2841 165.371 88.8309 165.454 94.3585 165.8C105.407 166.492 116.418 168.202 127.146 170.95C133.218 172.506 139.22 174.287 145.145 176.349C146.016 176.65 146.362 175.279 145.51 174.966Z" fill="#39706D"/>
<path d="M91.931 165.492C93.0903 161.284 97.1384 158.05 101.494 157.845C105.849 157.64 110.186 160.477 111.742 164.557C113.292 168.637 111.941 173.64 108.552 176.381C100.873 182.581 89.3113 174.998 91.931 165.492Z" fill="#39706D"/>
<path d="M93.7757 165.992C94.7236 162.559 98.0223 159.92 101.584 159.747C105.138 159.58 108.68 161.899 109.942 165.223C111.21 168.554 110.109 172.634 107.335 174.876C101.078 179.942 91.6364 173.755 93.7757 165.992Z" fill="#FFD075"/>
<path d="M152.274 158.267C152.242 158.056 151.889 158.056 151.851 158.267C151.678 159.241 151.793 160.317 151.787 161.303L151.768 164.282C151.761 165.275 151.755 166.267 151.768 167.26C151.774 167.798 151.78 168.33 151.787 168.868C151.793 169.265 151.729 169.681 151.953 170.027C151.966 170.04 151.985 170.04 151.992 170.027C152.216 169.688 152.165 169.265 152.178 168.868L152.222 167.26C152.248 166.267 152.261 165.275 152.267 164.282L152.299 161.303C152.299 160.317 152.434 159.241 152.274 158.267Z" fill="white"/>
<path d="M64.7669 143.638C61.6219 143.894 59.0599 146.091 57.6059 148.794C56.7284 150.421 56.2609 152.24 55.9983 154.059C55.8573 155.033 55.7677 156.019 55.7356 157.006C55.7036 157.883 55.4794 159.1 55.7997 159.92C55.8125 159.958 55.8765 159.984 55.9022 159.933C56.1904 159.279 56.0751 158.434 56.1135 157.729C56.1648 156.858 56.2224 155.987 56.3121 155.122C56.5171 153.22 56.9142 151.286 57.7468 149.55C59.0727 146.789 61.5963 144.413 64.7669 144.189C65.1191 144.163 65.1191 143.612 64.7669 143.638Z" fill="white"/>
<path d="M142.973 149.403C139.021 147.199 134.628 146.046 130.182 145.335C125.43 144.58 120.607 144.176 115.816 143.779C105.683 142.934 95.5178 142.492 85.3465 142.466C79.6011 142.447 73.8493 142.549 68.1103 142.895C67.8797 142.908 67.8733 143.26 68.1103 143.254C88.0431 142.78 108.091 142.959 127.896 145.585C133.007 146.264 138.131 147.366 142.679 149.902C143.005 150.088 143.3 149.582 142.973 149.403Z" fill="white"/>
<path d="M140.52 185.88C138.15 194.072 134.448 201.803 129.17 208.528C124.008 215.094 117.513 220.557 110.186 224.56C105.939 226.879 101.462 228.564 96.8757 230.069C96.6324 230.146 96.7348 230.504 96.9782 230.447C105.209 228.602 113.068 224.285 119.62 219.052C126.333 213.697 131.893 206.934 135.889 199.337C138.112 195.116 139.867 190.645 140.969 186.002C141.045 185.707 140.604 185.585 140.52 185.88Z" fill="#39706D"/>
<path d="M132.924 193.201C131.771 195.603 130.797 198.056 129.484 200.381C128.126 202.789 126.589 205.095 124.879 207.267C121.542 211.513 117.596 215.209 113.202 218.335C110.717 220.102 108.091 221.646 105.343 222.972C105.151 223.068 105.318 223.343 105.51 223.26C115.457 218.732 123.822 211.058 129.382 201.662C130.913 199.074 132.469 196.263 133.302 193.355C133.359 193.137 133.026 192.983 132.924 193.201Z" fill="#39706D"/>
<path d="M100.091 163.033C100.29 162.629 100.751 162.367 101.193 162.418C101.641 162.469 102.032 162.86 102.051 163.308C102.064 163.603 101.929 163.898 101.712 164.109C101.5 164.314 101.212 164.442 100.924 164.5C100.059 164.673 99.758 163.705 100.091 163.033Z" fill="white"/>
<path d="M97.1255 166.082C97.1383 165.781 97.3497 165.486 97.6443 165.396C97.9326 165.307 98.2848 165.441 98.4194 165.717C98.509 165.896 98.5026 166.12 98.4258 166.306C98.3489 166.492 98.208 166.645 98.0415 166.761C97.5483 167.106 97.0999 166.588 97.1255 166.082Z" fill="white"/>
<path d="M113.145 77.0376C114.061 70.3827 116.764 63.9776 120.901 58.6805C121.228 58.2642 121.997 58.7062 122.112 59.225C122.227 59.7438 121.933 60.2498 121.664 60.7046C118.653 65.7198 117.013 71.542 116.962 77.3899C115.79 77.5821 114.221 77.518 113.145 77.0376Z" fill="#39706D"/>
<path d="M118.704 58.4564C117.961 57.1305 117.923 55.4652 118.487 54.056C119.05 52.6469 120.184 51.5004 121.535 50.8086C122.996 50.0592 124.885 49.8671 126.218 50.8214C127.012 51.3915 127.518 52.301 127.768 53.249C128.216 54.9784 127.838 56.9063 126.768 58.3411C124.764 61.0184 120.523 61.7166 118.704 58.4564Z" fill="#FFD075"/>
<path d="M126.89 53.5564C126.813 53.313 126.448 53.4155 126.512 53.6589C126.967 55.3627 126.275 57.3803 124.789 58.3667C124.014 58.8855 123.079 59.1033 122.15 59.0456C121.689 59.0136 121.234 58.9047 120.799 58.7446C120.575 58.6613 120.357 58.5524 120.152 58.4371C119.998 58.3475 119.883 58.2642 119.697 58.3026C119.672 58.309 119.652 58.3347 119.652 58.3603C119.678 58.7702 120.357 59.0264 120.677 59.1673C121.126 59.3595 121.612 59.4684 122.099 59.5068C123.13 59.5965 124.213 59.3403 125.078 58.7574C126.743 57.6365 127.486 55.4716 126.89 53.5564Z" fill="#EB9921"/>
<path d="M66.4962 111.01C66.1632 104.298 68.5907 97.5917 72.6323 92.1665C76.674 86.7414 82.2657 82.5396 88.3633 79.4908C97.6059 74.8727 108.322 72.8167 118.525 74.6549C128.722 76.4932 138.285 82.4243 143.55 91.1994C148.085 98.7574 149.25 107.833 149.135 116.608C149.097 119.382 148.905 122.29 147.431 124.66C145.753 127.369 142.179 129.579 139.169 130.738C129.068 134.639 118.487 134.863 107.662 134.114C99.8734 133.576 93.9038 133.351 86.2625 131.776C83.1239 131.129 76.975 129.239 74.445 127.273C72.0239 125.39 70.5443 123.488 69.1416 120.791C67.5723 117.768 66.6628 114.405 66.4962 111.01Z" fill="#51A09B"/>
<path d="M78.8005 113.649C79.0695 108.109 79.7741 102.594 80.9078 97.1625C81.3818 94.8695 82.0159 92.4548 83.7132 90.8471C85.6604 89.0024 88.5491 88.6437 91.22 88.4131C105.126 87.1898 119.454 86.8439 132.693 91.2698C134.243 91.7886 135.838 92.4163 136.882 93.6717C138.355 95.446 138.355 97.9888 138.214 100.295C137.939 104.881 137.427 109.448 136.69 113.982C136.171 117.172 135.371 120.618 132.828 122.617C130.861 124.167 128.229 124.519 125.731 124.692C120.286 125.063 114.817 124.813 109.379 124.41C102.48 123.898 95.6011 123.123 88.7605 122.091C86.4354 121.739 82.8742 121.841 80.927 120.4C78.9094 118.902 78.6916 115.917 78.8005 113.649Z" fill="#39706D"/>
<path d="M96.1712 97.2778C94.5571 97.1241 92.9494 97.9696 91.867 99.1289C90.6436 100.436 89.9518 102.165 89.5035 103.869C89.401 104.253 89.9902 104.535 90.1632 104.151C91.2328 101.813 92.642 98.1873 95.8509 98.5204C97.0871 98.6485 98.1055 99.558 98.6756 100.615C99.0279 101.262 99.2136 101.998 99.2905 102.729C99.3738 103.529 99.2969 104.304 99.3225 105.098C99.3481 105.816 100.469 106.04 100.629 105.278C101.289 102.152 99.8221 97.6365 96.1712 97.2778Z" fill="white"/>
<path d="M123.7 102.607C123.169 101.249 122.221 100.083 120.927 99.3787C118.262 97.9247 114.842 98.5653 112.978 100.98C112.024 102.216 111.371 103.984 111.8 105.547C111.928 106.021 112.581 105.893 112.62 105.438C112.748 103.894 113.074 102.453 114.182 101.294C115.265 100.167 116.808 99.6541 118.352 99.8271C119.889 100 121.286 100.833 122.08 102.171C122.458 102.812 122.701 103.523 122.791 104.266C122.881 105.047 122.733 105.707 122.618 106.476C122.522 107.097 123.393 107.609 123.726 106.943C124.367 105.649 124.206 103.907 123.7 102.607Z" fill="white"/>
<path d="M117.584 113.777C117.558 113.611 117.385 113.528 117.238 113.515C115.662 113.367 114.08 113.252 112.498 113.169C111.723 113.124 110.948 113.092 110.173 113.066C109.801 113.054 109.43 113.047 109.052 113.054C108.661 113.06 108.245 113.022 107.873 113.137C107.848 113.143 107.841 113.163 107.822 113.175C107.713 113.175 107.598 113.22 107.521 113.342C107.124 113.982 106.74 114.636 106.355 115.289C106.163 115.616 105.971 115.942 105.785 116.269C105.734 116.359 105.676 116.448 105.625 116.544C105.561 116.192 105.471 115.846 105.407 115.507C105.292 114.879 105.19 114.251 105.087 113.624C104.991 113.022 104.908 112.413 104.805 111.805C104.754 111.504 104.703 111.203 104.652 110.902C104.6 110.6 104.581 110.312 104.421 110.05C104.357 109.954 104.235 109.947 104.158 110.011C104.107 109.998 104.05 109.998 103.998 110.018C103.806 110.075 103.691 110.223 103.556 110.363C103.441 110.485 103.345 110.613 103.242 110.748C103.037 111.01 102.833 111.273 102.634 111.536C102.429 111.805 102.205 112.067 102.019 112.349C101.91 112.516 101.776 112.708 101.692 112.906C101.078 112.804 100.437 112.797 99.8221 112.753C99.0727 112.695 98.3169 112.631 97.5675 112.573C96.8437 112.522 96.1199 112.471 95.3962 112.42C94.7044 112.368 93.9358 112.227 93.2441 112.375C92.9943 112.426 93.0455 112.753 93.2441 112.829C93.8718 113.066 94.6468 113.047 95.3129 113.098C96.0367 113.156 96.7605 113.214 97.4842 113.271C98.208 113.329 98.9318 113.38 99.6556 113.438C100.367 113.489 101.116 113.624 101.827 113.579C101.968 113.572 102.07 113.47 102.115 113.361C102.32 113.246 102.499 113.034 102.647 112.874C102.871 112.631 103.07 112.362 103.281 112.106C103.479 111.856 103.684 111.6 103.883 111.35C103.947 111.273 104.005 111.19 104.069 111.106C104.101 111.356 104.139 111.606 104.165 111.83C104.222 112.445 104.319 113.06 104.408 113.675C104.498 114.283 104.594 114.886 104.703 115.494C104.805 116.096 104.844 116.794 105.068 117.371C105.138 117.556 105.343 117.627 105.503 117.582C105.568 117.595 105.644 117.588 105.708 117.531C105.99 117.307 106.195 116.942 106.387 116.634C106.586 116.314 106.784 115.994 106.983 115.667C107.38 115.02 107.771 114.38 108.149 113.72C108.155 113.707 108.155 113.688 108.162 113.675C108.424 113.72 108.7 113.713 108.962 113.733C109.366 113.765 109.769 113.784 110.173 113.797C110.948 113.822 111.723 113.861 112.498 113.899C114.08 113.982 115.662 114.104 117.238 114.245C117.404 114.258 117.532 114.117 117.584 113.982C117.609 113.906 117.596 113.848 117.584 113.777Z" fill="#FFD075"/>
<path d="M142.115 125.62C139.675 126.966 137.222 128.17 134.57 129.066C131.957 129.95 129.26 130.584 126.538 131.02C120.703 131.955 114.752 131.962 108.866 131.628C105.407 131.43 101.955 131.142 98.4962 131.02C98.381 131.014 98.3553 131.206 98.4706 131.219C104.568 132.128 110.775 132.576 116.943 132.48C122.669 132.397 128.427 131.712 133.904 129.97C136.844 129.034 139.822 127.824 142.423 126.146C142.756 125.941 142.461 125.428 142.115 125.62Z" fill="#4C5980"/>
<path d="M94.6852 130.29C93.9806 130.162 93.2376 130.175 92.5203 130.098C91.7965 130.014 91.0727 129.906 90.3553 129.765C89.67 129.63 88.9782 129.483 88.2993 129.31C87.5819 129.131 86.8453 128.797 86.1215 128.701C85.9294 128.676 85.7949 128.919 85.9806 129.034C86.5699 129.393 87.3513 129.553 88.0111 129.745C88.7348 129.957 89.465 130.143 90.208 130.283C90.919 130.424 91.6363 130.533 92.3537 130.623C93.0775 130.713 93.8782 130.853 94.6083 130.783C94.8774 130.757 94.9862 130.341 94.6852 130.29Z" fill="#4C5980"/>
<path d="M81.3882 83.3082C72.991 88.3939 67.3289 97.265 66.3938 107.052C66.1055 110.037 66.1824 113.156 66.9062 116.07C66.9766 116.352 67.3673 116.224 67.3289 115.955C66.6307 110.773 66.7204 105.701 68.3217 100.679C69.7693 96.1633 72.2929 92.032 75.6107 88.6437C77.4298 86.7862 79.473 85.1785 81.6956 83.8335C82.0351 83.6349 81.7276 83.1033 81.3882 83.3082Z" fill="white"/>
<path d="M138.567 84.3907C126.954 74.3411 110.506 71.1449 95.9726 75.8719C93.9614 76.5252 91.9887 77.3259 90.0863 78.261C88.2096 79.1769 86.2753 80.1825 84.6804 81.5468C84.5139 81.6878 84.7252 81.9376 84.9046 81.8415C86.5891 80.9512 88.1712 79.8943 89.875 79.0296C91.5531 78.1842 93.2825 77.4412 95.0503 76.8135C98.6116 75.5516 102.333 74.7382 106.099 74.4243C113.439 73.803 120.882 75.1097 127.608 78.1201C131.425 79.8303 134.967 82.0913 138.182 84.775C138.445 84.9992 138.836 84.6213 138.567 84.3907Z" fill="white"/>
<path d="M152.655 90.5588C154.897 87.4395 157.132 84.3267 159.374 81.2074C159.528 80.9896 159.688 80.7718 159.855 80.5604C159.733 65.3483 159.611 50.1361 159.483 34.9303C159.47 32.9832 159.848 30.1329 161.795 30.0689C184.098 29.3131 206.42 29.1337 228.729 29.5564C230.971 29.6013 233.693 30.0176 234.955 31.8687C235.102 49.0729 235.243 66.2834 235.39 83.4876C234.73 85.3899 228.799 85.1401 225.251 85.1209C206.67 85.0376 188.095 84.9608 169.513 84.8775C168.796 85.249 168.085 85.5564 167.682 85.787C163.518 88.1569 159.278 90.3859 154.98 92.4996C154.487 92.743 153.975 92.9864 153.424 92.9992C152.873 93.012 152.277 92.7238 152.111 92.1986C151.938 91.6285 152.309 91.0456 152.655 90.5588Z" fill="#EB9921"/>
<path d="M171.55 59.9103C171.198 61.5693 170.846 63.2218 170.487 64.8807C170.333 65.6109 169.251 65.3034 169.405 64.5733C169.738 63.0232 170.064 61.4732 170.397 59.9295C168.899 59.9488 167.4 59.968 165.901 59.9872C165.177 59.9936 165.177 58.8407 165.901 58.8279C167.483 58.8086 169.065 58.783 170.647 58.7638C170.833 57.8991 171.019 57.0344 171.204 56.1633C171.32 55.6189 172.184 55.5997 172.287 56.1633C172.447 57.0216 172.601 57.8735 172.761 58.7318C173.421 58.7254 174.08 58.7126 174.74 58.7062C176.495 52.711 178.256 46.7222 179.973 40.7142C180.14 40.1377 180.851 40.3171 180.915 40.8487C181.651 46.767 182.381 52.6789 183.112 58.5973C183.137 58.5973 183.156 58.5973 183.182 58.5973C183.349 57.7902 183.515 56.9896 183.682 56.1825C183.784 55.6958 184.61 55.6509 184.681 56.1825C184.783 56.9896 184.924 57.7838 185.078 58.5717C186.077 58.5588 187.07 58.546 188.069 58.5332C188.242 57.7134 188.389 56.8935 188.492 56.0544C188.562 55.4972 189.357 55.273 189.517 55.9135C189.734 56.7782 189.946 57.6429 190.164 58.5076C191.304 58.4948 192.45 58.4756 193.59 58.4628C193.949 57.1177 194.308 55.779 194.666 54.4339C194.833 53.8191 195.608 54.0176 195.672 54.5749C195.826 55.8623 195.979 57.1433 196.133 58.4307C196.37 58.4307 196.607 58.4243 196.844 58.4243C197.664 58.4115 198.477 58.4051 199.297 58.3923C199.88 53.4283 200.469 48.4644 201.033 43.5004C201.091 43.02 201.847 42.7958 201.936 43.3723C202.718 48.3555 203.499 53.3387 204.281 58.3219C204.594 58.3154 204.915 58.3155 205.228 58.309C205.619 56.7014 206.01 55.1001 206.401 53.4924C206.516 53.0184 207.176 53.044 207.304 53.4924C207.758 55.0809 208.22 56.6757 208.674 58.2642L210.301 58.245C210.839 56.4195 211.371 54.5941 211.903 52.7686C212.037 52.2946 212.658 52.3203 212.806 52.7686C213.395 54.5492 213.869 56.3555 214.24 58.1873C214.349 58.1873 214.452 58.1809 214.561 58.1809C215.188 52.6085 216.028 47.0681 216.995 41.5468C217.072 41.1113 217.795 41.0985 217.866 41.5468C218.66 47.1001 219.698 52.6021 220.966 58.0528C222.093 58.04 223.22 58.0336 224.348 58.04C224.393 58.0336 224.437 58.0336 224.482 58.04C225.578 58.0464 226.673 58.0721 227.768 58.1105C228.37 58.1361 228.37 59.0392 227.768 59.0777C226.762 59.1417 225.757 59.1865 224.745 59.225C224.226 61.7742 223.682 64.3171 223.137 66.8599C223.028 67.3659 222.311 67.3275 222.176 66.8599C221.491 64.3619 220.857 61.8511 220.268 59.3275C218.634 59.3467 217.001 59.3467 215.368 59.3595C215.24 60.6149 215.112 61.8639 214.996 63.1193C214.939 63.7534 214.106 63.7534 214.042 63.1193C213.914 61.8575 213.728 60.6085 213.497 59.3723C213.145 59.3787 212.787 59.3787 212.434 59.3851C211.935 59.3915 211.435 59.3979 210.935 59.4043C210.596 60.5701 210.256 61.7358 209.917 62.8951C209.783 63.3563 209.142 63.3627 209.007 62.8951C208.681 61.7422 208.348 60.5893 208.021 59.4428C207.317 59.4492 206.606 59.462 205.901 59.4684L204.991 63.1833C204.883 63.6189 204.172 63.6637 204.095 63.1833C203.903 61.9536 203.71 60.7302 203.518 59.5004C202.397 59.5132 201.277 59.5324 200.149 59.5452C199.528 65.1433 198.907 70.7414 198.247 76.3331C198.164 77.0184 197.286 77.0248 197.209 76.3331C196.569 70.7606 195.896 65.1881 195.23 59.6157C194.929 59.6221 194.634 59.6221 194.333 59.6285C193.648 62.2098 192.956 64.7846 192.271 67.3659C192.136 67.8655 191.406 67.8783 191.278 67.3659C190.638 64.8102 190.003 62.2482 189.363 59.6926C189.184 59.6926 189.004 59.699 188.831 59.699C188.351 61.6397 187.691 63.5164 186.827 65.3419C186.609 65.7966 186.026 65.5981 185.879 65.2138C185.193 63.4331 184.662 61.6141 184.258 59.763C184.168 59.763 184.072 59.763 183.983 59.7694C183.823 60.5508 183.656 61.3323 183.496 62.1137C183.361 62.7542 182.548 62.5172 182.484 61.9728C182.394 61.249 182.311 60.5188 182.221 59.795C179.979 59.8271 177.744 59.8527 175.502 59.8847C174.977 61.7358 174.452 63.5933 173.927 65.4444C173.779 65.9568 172.966 66.0272 172.857 65.4444C172.511 63.6061 172.178 61.7678 171.839 59.9295C171.742 59.9039 171.646 59.9103 171.55 59.9103ZM222.618 64.6309C223.016 62.8375 223.419 61.044 223.829 59.2506C222.977 59.2762 222.119 59.289 221.267 59.3018C221.69 61.0825 222.138 62.8567 222.618 64.6309ZM219.986 58.0464C218.967 53.5372 218.096 48.9832 217.392 44.4099C216.604 48.964 215.995 53.5436 215.502 58.1425C216.995 58.1105 218.493 58.0721 219.986 58.0464ZM212.165 58.2066C212.537 58.2002 212.908 58.1938 213.28 58.1873C213.024 56.9512 212.722 55.7278 212.37 54.5172C212.011 55.7534 211.646 56.9832 211.288 58.2194C211.582 58.213 211.871 58.2066 212.165 58.2066ZM209.475 61.0504C209.635 60.4996 209.795 59.9488 209.955 59.4043C209.635 59.4107 209.321 59.4107 209.001 59.4171C209.161 59.9616 209.315 60.506 209.475 61.0504ZM207.694 58.2642C207.425 57.3227 207.156 56.3811 206.887 55.4395L206.189 58.2834C206.689 58.277 207.195 58.2706 207.694 58.2642ZM204.646 60.6789C204.742 60.2754 204.844 59.8719 204.94 59.4684C204.78 59.4684 204.62 59.4748 204.453 59.4748C204.524 59.8783 204.582 60.2754 204.646 60.6789ZM203.345 58.3219C202.75 54.5236 202.154 50.719 201.558 46.9207C201.129 50.7318 200.706 54.5492 200.284 58.3667C201.309 58.3475 202.327 58.3347 203.345 58.3219ZM197.722 71.8559C198.189 67.7502 198.67 63.6509 199.156 59.5452C198.381 59.558 197.613 59.5644 196.838 59.5773C196.646 59.5773 196.453 59.5837 196.261 59.5837C196.748 63.6701 197.235 67.763 197.722 71.8559ZM195.102 58.4307C195.057 58.0464 195.012 57.6557 194.961 57.2714C194.859 57.6621 194.756 58.0464 194.654 58.4371C194.801 58.4371 194.955 58.4371 195.102 58.4307ZM191.803 65.1369C192.297 63.2986 192.783 61.4604 193.27 59.6221C192.329 59.6349 191.387 59.6477 190.439 59.6605C190.9 61.486 191.349 63.3114 191.803 65.1369ZM186.436 63.6701C186.987 62.3763 187.435 61.0504 187.787 59.6926C186.961 59.7054 186.141 59.7118 185.315 59.7246C185.622 61.0568 185.994 62.3763 186.436 63.6701ZM182.087 58.6101C181.465 53.4924 180.851 48.3747 180.236 43.2506C178.75 48.3939 177.296 53.5436 175.835 58.6934C177.923 58.6613 180.005 58.6357 182.087 58.6101ZM173.517 62.8631C173.805 61.8639 174.1 60.8711 174.394 59.8719C173.92 59.8783 173.446 59.8847 172.972 59.8911C173.152 60.8839 173.337 61.8703 173.517 62.8631Z" fill="white"/>
</g>
<defs>
<clipPath id="clip0_15_751">
<rect width="280" height="257.819" fill="white"/>
</clipPath>
</defs>
</svg>
