<svg width="280" height="217" viewBox="0 0 280 217" fill="none" xmlns="http://www.w3.org/2000/svg">
<g clip-path="url(#clip0_14_442)">
<path opacity="0.3" d="M111.335 11.5134C111.335 11.5134 173.811 2.85041 182.091 44.7672C186.472 66.9495 218.704 50.9198 237.095 58.6179C250.19 64.099 243.423 82.6637 251.289 87.5064C290.053 111.367 279.967 215.718 272.441 215.702L13.9489 215.276C13.9489 215.276 -6.9579 183.99 11.9688 165.721C30.8944 147.453 17.9005 139.099 15.6 132.038C12.9595 123.931 3.50226 100.785 30.4414 90.6515C44.2725 85.449 48.569 71.0496 49.6161 61.4352C51.4071 45.009 60.598 30.3898 74.5469 22.4069C83.3793 17.353 95.293 13.2026 111.335 11.5134Z" fill="#DCECEB"/>
<path d="M151.137 30.8404L154.769 34.9883C155.038 35.0915 155.258 34.927 155.804 34.5243C156.782 33.805 157.762 33.0856 158.763 32.4006C158.922 32.2926 159.246 32.2889 159.425 32.3761C160.496 32.8941 161.534 33.4772 162.609 33.9842C162.942 34.1413 163.088 34.2751 163.089 34.663C163.092 36.2147 163.139 37.7663 163.168 39.3008C164.506 39.7599 167.99 40.0312 169.183 39.7575C169.42 38.2979 169.685 36.8113 169.89 35.3161C169.954 34.8508 170.101 34.6851 170.581 34.5636C171.692 34.2813 172.781 33.897 173.855 33.4932C174.29 33.3299 174.582 33.2796 174.949 33.6515C175.9 34.6139 176.911 35.5174 177.879 36.4639C178.14 36.718 178.364 36.7794 178.642 36.5388C179.951 35.4106 181.259 34.28 182.567 33.1507C182.889 32.8732 182.64 32.6424 182.49 32.4301C181.736 31.3535 180.989 30.272 180.199 29.2212C179.904 28.8271 179.901 28.5448 180.153 28.1127C180.819 26.9686 181.412 25.7815 182.082 24.522C183.613 24.4864 185.302 24.4472 187.039 24.4066C187.518 22.4438 187.629 20.4747 187.431 18.421C185.768 18.1448 184.104 17.8674 182.637 17.6231C182.106 16.134 181.643 14.7444 181.102 13.3855C180.945 12.9927 181.001 12.7962 181.271 12.5213C182.205 11.5687 183.109 10.5866 184.037 9.62787C184.237 9.42041 184.356 9.251 184.172 8.96498C183.239 7.52012 182.197 6.17225 180.867 5.06006C180.57 4.81209 180.37 4.84769 180.093 5.04656C178.974 5.84448 177.841 6.62154 176.727 7.42314C176.457 7.6171 176.277 7.65761 175.943 7.48207C174.787 6.87319 173.604 6.31219 172.408 5.78433C172.102 5.6493 172.05 5.49217 172.043 5.21351C172.008 3.66186 171.96 2.1102 171.916 0.519263C169.959 0.0871567 168.018 -0.115393 166.001 0.0711982C165.719 1.76771 165.439 3.45317 165.17 5.0662C163.601 5.58424 162.082 6.08632 160.455 6.62399C159.591 5.80766 158.603 4.85997 157.599 3.92947C156.775 3.16591 156.981 3.10822 155.999 3.8018C155.906 3.86809 155.788 3.9 155.681 3.94788C154.902 4.63041 154.123 5.31294 153.344 5.99425C153.199 6.17716 153.077 6.3883 152.903 6.53684C152.449 6.92229 152.389 7.26233 152.784 7.77669C153.608 8.84836 154.365 9.97282 155.122 11.0936C155.222 11.2409 155.24 11.5294 155.164 11.6926C154.673 12.7545 154.089 13.7758 153.654 14.8586C153.442 15.3889 153.187 15.508 152.669 15.5104C151.198 15.5178 149.729 15.5853 148.111 15.6344C147.958 17.6378 147.81 19.5921 147.66 21.5685C148.03 21.6372 148.242 21.6802 148.456 21.7158C149.771 21.9343 151.085 22.1651 152.403 22.3603C152.778 22.4155 152.902 22.5849 153.016 22.936C153.405 24.1427 153.872 25.3236 154.269 26.5267C154.331 26.7133 154.256 27.0324 154.123 27.181C153.393 27.9948 152.617 28.7694 151.871 29.5686C151.264 30.2143 151.042 30.4561 151.137 30.8404ZM160.944 25.7337C157.697 22.0264 158.071 16.3894 161.777 13.1424C165.484 9.89548 171.121 10.2699 174.368 13.9772C177.615 17.6844 177.241 23.3215 173.534 26.5684C169.826 29.8141 164.189 29.4409 160.944 25.7337Z" fill="#F7CC7F"/>
<path d="M165.45 46.1936L158.545 53.224C158.398 53.7174 158.721 54.0857 159.511 55.0076C160.924 56.655 162.338 58.3037 163.692 59.9989C163.906 60.2653 163.955 60.8435 163.824 61.175C163.044 63.1514 162.144 65.0811 161.384 67.0649C161.149 67.6799 160.931 67.9573 160.239 68.0113C157.475 68.2237 154.715 68.5146 151.984 68.7736C151.345 71.2202 151.329 77.4661 151.976 79.5554C154.609 79.7825 157.295 80.0551 159.987 80.2208C160.826 80.2723 161.141 80.5129 161.422 81.3502C162.074 83.2922 162.905 85.1814 163.77 87.0424C164.119 87.7962 164.247 88.3093 163.635 89.0139C162.047 90.8393 160.572 92.7605 159.015 94.6129C158.597 95.1113 158.519 95.5188 158.983 95.9828C161.17 98.1655 163.36 100.344 165.547 102.527C166.085 103.063 166.462 102.587 166.821 102.294C168.639 100.807 170.467 99.3292 172.234 97.7825C172.897 97.2018 173.399 97.1601 174.203 97.5505C176.331 98.5865 178.526 99.4827 180.862 100.508C181.131 103.23 181.427 106.237 181.731 109.327C185.294 109.917 188.818 109.851 192.453 109.222C192.723 106.221 192.993 103.218 193.231 100.572C195.814 99.4237 198.23 98.4122 200.578 97.2657C201.258 96.933 201.616 97.0079 202.14 97.451C203.963 98.9879 205.834 100.468 207.668 101.992C208.064 102.321 208.382 102.511 208.867 102.144C211.317 100.288 213.58 98.2502 215.384 95.7312C215.787 95.1702 215.695 94.8167 215.304 94.3477C213.732 92.4622 212.196 90.5459 210.616 88.6665C210.233 88.2111 210.139 87.8968 210.406 87.2793C211.337 85.1372 212.177 82.9509 212.958 80.7486C213.159 80.1864 213.431 80.0698 213.927 80.0219C216.688 79.7494 219.447 79.4572 222.277 79.1651C222.784 75.6186 222.886 72.1335 222.282 68.5625C219.22 68.2863 216.178 68.0126 213.267 67.7511C212.132 65.0234 211.034 62.3829 209.859 59.5558C211.198 57.9072 212.753 56.0179 214.278 54.1041C215.529 52.5328 215.658 52.8937 214.292 51.2353C214.161 51.0769 214.088 50.8719 213.988 50.6878C212.668 49.3902 211.348 48.0927 210.027 46.7964C209.682 46.5619 209.289 46.3753 209.002 46.0844C208.253 45.327 207.641 45.2656 206.776 46.039C204.977 47.6508 203.074 49.1509 201.179 50.6522C200.931 50.8486 200.416 50.9198 200.117 50.8069C198.159 50.074 196.259 49.1681 194.27 48.5408C193.296 48.2339 193.051 47.7944 192.976 46.87C192.766 44.2504 192.448 41.6393 192.145 38.7631C188.553 38.7607 185.051 38.7582 181.508 38.7558C181.436 39.4236 181.386 39.8078 181.352 40.192C181.138 42.5662 180.904 44.9391 180.733 47.3156C180.684 47.9908 180.401 48.2351 179.789 48.4831C177.691 49.3387 175.649 50.3281 173.557 51.1972C173.233 51.3323 172.654 51.2414 172.37 51.0241C170.821 49.8309 169.338 48.553 167.812 47.3291C166.584 46.3373 166.122 45.9739 165.45 46.1936ZM175.866 62.9881C182.038 56.7041 192.136 56.6145 198.419 62.7868C204.703 68.959 204.793 79.057 198.62 85.3398C192.448 91.6237 182.35 91.7133 176.067 85.5411C169.783 79.3689 169.694 69.272 175.866 62.9881Z" fill="#F47458"/>
<path d="M179.751 24.182C179.744 24.1795 179.735 24.1771 179.728 24.1734C179.505 24.0924 179.277 24.0212 179.047 23.9549C178.968 23.9316 178.89 23.9082 178.811 23.8874C178.728 23.8653 178.644 23.8456 178.559 23.826C178.475 23.8051 178.389 23.7855 178.303 23.7671C178.222 23.7499 178.14 23.7339 178.059 23.718C177.966 23.7008 177.876 23.6836 177.782 23.6689C177.704 23.6554 177.625 23.6431 177.547 23.632C177.447 23.6173 177.347 23.605 177.246 23.594C177.172 23.5854 177.1 23.5768 177.026 23.5694C176.911 23.5584 176.795 23.551 176.68 23.5424C176.619 23.5387 176.558 23.5338 176.497 23.5301C176.319 23.5216 176.14 23.5166 175.959 23.5166H93.3423C93.1496 23.5166 92.9593 23.5216 92.7691 23.5314C92.3897 23.551 92.0141 23.5891 91.6458 23.6455C91.4617 23.6738 91.2788 23.7069 91.0971 23.7437C86.3832 24.7111 82.7533 28.6663 82.2598 33.5521C82.2217 33.9277 82.2021 34.3095 82.2021 34.6949V172.646V204.119C82.2021 208.957 85.2649 213.075 89.5516 214.632C89.57 214.639 89.5896 214.644 89.6093 214.651C89.8216 214.727 90.0377 214.795 90.2562 214.859C90.3348 214.882 90.4133 214.905 90.4931 214.926C90.5766 214.948 90.6601 214.968 90.7448 214.988C90.8295 215.009 90.9154 215.028 91.0014 215.047C91.0824 215.064 91.1634 215.08 91.2456 215.096C91.3377 215.113 91.4298 215.13 91.5218 215.145C91.6004 215.158 91.679 215.171 91.7575 215.182C91.857 215.196 91.9576 215.209 92.0583 215.22C92.1319 215.228 92.2044 215.237 92.278 215.244C92.3934 215.255 92.5088 215.264 92.6242 215.271C92.6856 215.275 92.7457 215.28 92.8071 215.283C92.9851 215.292 93.1643 215.297 93.3448 215.297H175.963C176.347 215.297 176.728 215.277 177.102 215.239C182.345 214.705 186.514 210.523 187.046 205.262C187.084 204.886 187.103 204.504 187.103 204.119V66.1687V34.6962C187.101 29.8583 184.038 25.7386 179.751 24.182Z" fill="#355389"/>
<path d="M181.699 38.7521H87.6022V200.062H181.699V38.7521Z" fill="#EAFCFC"/>
<path opacity="0.2" d="M158.715 117.751C171.908 104.558 171.908 83.168 158.715 69.9751C145.522 56.7822 124.132 56.7822 110.939 69.9751C97.7463 83.168 97.7463 104.558 110.939 117.751C124.132 130.944 145.522 130.944 158.715 117.751Z" fill="#3CB4C5"/>
<path opacity="0.3" d="M153.849 33.6834H115.606C115.047 33.6834 114.595 33.2304 114.595 32.6731C114.595 32.1146 115.048 31.6628 115.606 31.6628H153.849C154.408 31.6628 154.86 32.1158 154.86 32.6731C154.861 33.2304 154.408 33.6834 153.849 33.6834Z" fill="#DAEEF7"/>
<path opacity="0.2" d="M155.865 114.901C167.484 103.282 167.484 84.4439 155.865 72.8248C144.246 61.2058 125.408 61.2058 113.789 72.8248C102.17 84.4439 102.17 103.282 113.789 114.901C125.408 126.52 144.246 126.52 155.865 114.901Z" fill="#3CB4C5"/>
<path opacity="0.2" d="M152.115 111.151C161.663 101.603 161.663 86.1227 152.115 76.5746C142.567 67.0266 127.087 67.0266 117.539 76.5746C107.991 86.1227 107.991 101.603 117.539 111.151C127.087 120.699 142.567 120.699 152.115 111.151Z" fill="#3CB4C5"/>
<path opacity="0.3" d="M139.219 207.833C139.219 210.394 137.151 212.471 134.597 212.471C132.044 212.471 129.976 210.395 129.976 207.833C129.976 205.271 132.044 203.197 134.597 203.197C137.151 203.197 139.219 205.273 139.219 207.833Z" fill="#DAEEF7"/>
<path opacity="0.2" d="M181.699 193.294H87.6022V200.062H181.699V193.294Z" fill="#3CB4C5"/>
<path opacity="0.2" d="M181.699 38.7521H87.6022V47.312H181.699V38.7521Z" fill="#3CB4C5"/>
<path d="M68.355 130.003L68.6853 130.298C68.8547 130.451 69.11 130.445 69.2561 130.284L75.1116 123.824C75.2565 123.663 75.2368 123.411 75.0674 123.258L74.7372 122.962C74.5678 122.81 74.3125 122.816 74.1664 122.977L68.3109 129.437C68.1648 129.596 68.1856 129.85 68.355 130.003Z" fill="#13375B"/>
<path d="M48.5027 124.755C49.2859 124.116 55.3378 126.781 55.2605 127.708C55.1832 128.636 59.4834 137.63 59.4834 137.63L66.9139 131.684L66.9163 131.686C66.9826 131.471 67.686 129.158 67.7204 128.744C67.756 128.311 69.0118 127.551 69.5949 127.663C70.178 127.775 69.0965 128.509 69.0253 128.644C68.8313 129.011 69.5789 129.148 69.5789 129.148C69.5789 129.148 71.726 127.966 71.7714 127.27C71.8168 126.575 72.26 125.117 72.724 125.423C72.9634 125.58 72.9609 126.615 72.886 127.104C73.0235 126.547 73.2187 125.918 73.409 125.856C73.7564 125.742 73.9295 126.185 73.8656 126.403C73.803 126.621 73.242 128.986 73.0714 129.251C72.9044 129.512 69.4378 132.314 68.9381 132.923C68.9381 132.923 59.3262 143.948 58.6425 144.236C58.0422 144.489 55.9013 140.69 53.8782 138.167C51.8589 135.647 46.0574 126.751 48.5027 124.755Z" fill="#F7A491"/>
<path d="M29.1083 205.825C29.1083 205.825 27.7874 207.118 27.7579 207.593C27.7285 208.068 27.6413 213.151 28.1802 213.626C28.7191 214.101 30.3027 214.438 29.7945 214.972C29.4102 215.376 26.4493 215.288 24.4864 215.18C23.9132 215.148 23.195 210.563 22.9679 209.89C22.6389 208.911 21.8373 206.705 22.1369 206.024C22.2829 205.691 22.9814 205.009 23.9647 204.37C24.9996 203.7 25.9902 202.206 25.9902 202.206L29.1083 205.825Z" fill="#F48C7F"/>
<path d="M42.7908 208.836C42.7908 208.836 41.6086 212.186 41.6074 212.195C41.519 212.725 41.1741 214.037 41.1741 214.52C41.1741 216.333 49.3215 212.981 47.4961 212.178C47.3304 212.105 46.8123 211.525 46.7583 210.907C46.6748 209.957 47.4445 208.764 47.4445 208.764L42.7908 208.836Z" fill="#F7A491"/>
<path d="M55.5723 146.447C55.5723 146.447 56.1665 152.454 56.1665 152.543C56.1665 162.26 58.0864 181.238 57.7206 183.065C56.8306 187.519 47.2457 210.248 47.2457 210.248L42.0653 209.627L48.8158 182.414L46.3312 171.46L42.8166 149.81L55.5723 146.447Z" fill="#355389"/>
<path d="M38.1874 151.76L37.2041 157.452L34.5452 180.882L24.4177 203.78C24.4177 203.78 25.8429 207.111 27.9445 207.579L44.0638 184.07L54.0772 153.988L53.7261 147.305L38.1874 151.76Z" fill="#13375B"/>
<path d="M57.6383 132.146L50.4558 132.881C50.4558 132.881 50.1268 126.973 50.1268 124.154C50.1268 120.734 50.4165 116.33 50.829 116.426C51.9841 116.692 53.5394 117.332 54.4663 118.608C57.669 123.026 57.6383 132.146 57.6383 132.146Z" fill="#E25A44"/>
<path d="M54.1103 123.552C54.2613 124.594 57.0221 152.939 57.0221 152.939C43.9435 159.277 36.7266 154.068 36.7266 154.068C36.7266 154.068 37.155 134.164 36.6419 131.455C36.3031 129.663 35.8796 117.753 37.0372 117.419C38.5225 116.99 40.2252 116.536 42.0825 116.343C43.6673 116.179 49.8236 116.083 50.9247 116.454C50.9223 116.453 53.4768 119.167 54.1103 123.552Z" fill="#F47458"/>
<path d="M24.0298 204.337C24.0298 204.337 27.0742 212.938 28.2649 213.352C28.5816 213.463 30.0989 213.743 30.3862 214.416C30.4721 214.618 30.3862 215.297 30.3862 215.297H24.0408C24.0408 215.297 23.238 211.507 22.9213 209.843C22.9213 209.843 21.242 205.775 21.4285 205.405C21.6151 205.036 24.0298 204.337 24.0298 204.337Z" fill="#13375B"/>
<path d="M40.7101 215.118L41.643 212.161C41.643 212.161 43.6022 212.993 44.5818 212.854C45.5614 212.715 47.474 212.161 47.474 212.161C51.3851 213.452 54.589 214.079 54.0059 215.118H40.7101Z" fill="#13375B"/>
<path d="M58.6462 144.238C58.6756 144.225 58.7824 144.142 58.8438 144.09C58.6118 141.313 58.6535 138.623 59.5214 137.713C59.5005 137.67 59.3103 137.265 59.1126 136.845C58.106 137.626 57.6273 139.702 57.8151 143.07C57.8286 143.302 57.8949 143.479 57.9477 143.767C58.2398 144.09 58.505 144.298 58.6462 144.238Z" fill="#F7A491"/>
<path d="M23.772 153.238C23.7634 153.177 23.7634 153.117 23.7683 153.055C23.961 151.092 25.5851 134.61 25.8589 133.909C26.1056 133.277 33.39 122.823 33.39 122.823L36.9709 127.717L29.9651 137.093C29.808 137.688 27.2804 148.815 27.2804 148.815C27.2804 148.815 26.7624 150.843 26.5303 152.058C26.6359 152.351 26.7403 152.628 26.8323 152.854C27.0643 153.339 27.3381 153.737 27.5873 154.072C27.9003 154.493 28.4184 155.413 28.4822 155.659C28.5558 155.945 28.6897 156.54 28.7658 156.899C28.8419 157.257 28.945 157.676 28.9622 157.871C28.9732 157.99 29.0948 158.226 29.188 158.393C29.328 158.642 29.0898 158.935 28.8185 158.846C28.5644 158.761 28.3656 158.431 28.244 158.225C27.8991 157.643 27.715 156.581 27.6303 156.637C27.5443 156.694 27.2423 158.495 27.1945 158.698C27.1466 158.902 26.7845 160.994 26.5794 161.376C26.3744 161.758 26.1044 161.694 26.0332 161.454C25.9718 161.248 26.2591 158.322 26.2591 158.322C26.2591 158.322 26.2947 157.948 26.1314 158.065C25.9681 158.182 25.7017 160.838 25.5888 161.227C25.4759 161.616 25.2168 161.823 24.9983 161.51C24.7319 161.129 25.1898 158.312 25.1898 158.312C25.1898 158.312 25.2414 157.957 25.0904 157.99C24.9394 158.023 24.7504 160.287 24.6337 160.483C24.5159 160.678 24.22 160.75 24.0789 160.423C23.9119 160.039 24.344 157.526 24.344 157.526C24.344 157.526 24.3232 157.326 24.2286 157.392C24.1341 157.459 23.8358 159.377 23.6419 159.555C23.4786 159.704 23.3423 159.56 23.3423 159.56C22.9851 159.316 23.5326 157.49 23.5277 156.583C23.5228 155.676 23.9414 154.656 23.8162 153.576C23.8076 153.509 23.7855 153.343 23.772 153.238Z" fill="#F8A492"/>
<path d="M27.7002 129.444L33.9228 133.636C33.9228 133.636 37.43 128.399 39.3131 126.535C41.6712 124.2 38.4538 117.044 36.934 117.449C33.5349 118.355 27.7002 129.444 27.7002 129.444Z" fill="#F47458"/>
<path d="M42.5379 110.215L41.6074 116.37C41.6074 116.37 45.0066 123.699 47.0357 123.064C48.7384 122.532 47.6913 116.046 47.6913 116.046C47.6913 116.046 46.7632 112.564 47.0419 110.821C47.3193 109.077 42.5379 110.215 42.5379 110.215Z" fill="#F7A491"/>
<path d="M47.0407 110.821C47.3193 109.077 42.5379 110.215 42.5379 110.215L42.4606 110.726C42.6005 111.067 42.7712 111.359 42.9786 111.584C44.0466 112.737 45.7161 113.43 47.1597 113.482C47.0161 112.542 46.9265 111.535 47.0407 110.821Z" fill="#F47458"/>
<path d="M41.7535 101.507C41.6184 101.458 40.6707 108.518 42.4691 110.46C44.2688 112.402 47.7735 113.038 49.0305 111.508C50.4214 109.815 50.3514 102.228 47.5537 100.229C44.7573 98.2318 41.7535 101.507 41.7535 101.507Z" fill="#F7A491"/>
<path d="M46.4895 96.453C44.3277 96.8949 42.9271 98.2207 42.4127 98.7866C41.4306 98.9032 40.0963 99.447 38.7189 101.736C37.0249 104.551 38.2758 107.669 40.2485 109.199C42.22 110.728 42.193 112.496 42.193 112.496L42.5048 111.582C42.7343 110.889 42.8288 110.155 42.7515 109.428C42.7049 108.993 42.6128 108.521 42.4323 108.133C41.9585 107.112 43.4512 106.433 43.8698 105.582C44.1927 104.928 44.2074 103.431 44.7156 102.349L45.3221 101.523C45.3221 101.523 46.7215 100.43 48.0902 100.738C49.4614 101.048 49.2638 95.8858 46.4895 96.453Z" fill="#184655"/>
<path d="M43.779 106.84C43.7937 107.701 43.4033 108.406 42.9074 108.414C42.4114 108.423 41.999 107.732 41.9842 106.87C41.9695 106.008 42.3599 105.304 42.8558 105.295C43.3505 105.288 43.7642 105.979 43.779 106.84Z" fill="#F7A491"/>
<path d="M46.7006 108.831L49.4123 108.689C49.4123 108.689 49.4037 109.727 48.213 109.823C46.7595 109.94 46.7006 108.831 46.7006 108.831Z" fill="white"/>
<path d="M222.367 132.612C222.367 132.612 227.59 144.076 228.697 146.207C229.804 148.338 231.866 154.905 231.96 155.231C232.055 155.556 229.324 159.223 229.841 159.41C230.357 159.598 231.084 157.562 231.626 157.876C232.169 158.19 233.453 163.436 233.789 163.22C234.419 162.817 233.125 159.981 233.455 159.849C233.785 159.716 234.533 162.93 235.165 162.909C235.796 162.888 234.175 159.928 234.366 159.705C234.558 159.482 236.26 162.289 236.64 161.775C236.846 161.495 235.066 159.313 235.446 159.171C235.827 159.029 237.444 160.489 237.65 160.145C237.856 159.8 236.134 159.1 235.677 158.054C235.221 157.008 234.355 156.481 234.111 154.613C233.866 152.745 233.77 146.074 232.096 142.562C230.422 139.05 226.744 131.281 226.744 131.281L222.367 132.612Z" fill="#F7A491"/>
<path d="M224.027 119.847C224.144 117.017 223.729 114.225 222.47 111.591C221.386 109.325 218.702 108.04 216.256 108.036C208.486 108.027 207.499 118.335 202.554 122.312C201.042 123.527 199.353 124.517 197.923 125.826C192.643 130.664 195.021 139.621 199.87 143.863C203.235 146.807 208.522 148.479 212.669 146.178C214.833 144.977 216.477 142.981 217.647 140.793C219.307 137.688 220.379 134.106 221.56 130.797C222.818 127.274 223.872 123.607 224.027 119.847Z" fill="#13375B"/>
<path d="M196.266 108.839C196.624 108.579 197.533 110.43 197.969 110.412C198.404 110.393 197.668 107.822 197.996 107.624C198.601 107.258 198.976 110.391 199.265 110.241C199.553 110.09 199.325 106.841 199.95 107.011C200.575 107.183 199.836 110.406 200.217 110.382C200.599 110.359 200.635 107.323 201.433 107.138C201.859 107.038 200.713 112.318 201.099 112.775C201.484 113.232 203.123 111.552 203.539 111.882C203.957 112.213 200.329 114.68 200.273 115.011C200.216 115.342 199.466 122.431 199.564 124.774C200.373 124.82 204.946 125.726 205.705 125.752C205.201 127.233 206.438 128.765 206.024 130.264C203.461 130.037 195.837 129.456 195.359 128.906C193.903 127.232 196.572 116.882 197.187 115.068C197.802 113.252 197.2 112.499 197.232 111.385C197.265 110.272 195.906 109.099 196.266 108.839Z" fill="#F7A491"/>
<path d="M208.146 214.687C208.792 214.211 209.314 213.896 211.377 212.896C211.512 212.831 212.002 212.518 212.179 212.41C212.627 212.136 213.076 211.704 213.464 211.272C213.834 210.859 214.01 209.536 214.094 208.482C213.882 206.127 210.47 168.362 209.75 164.274C209.007 160.054 210.139 153.618 210.139 153.618L212.773 152.624L217.773 169.955L217.379 183.148C217.379 183.148 218.555 186.951 218.703 189.223C218.852 191.496 217.003 209.941 217.003 209.941C217.003 210.6 217.029 211.197 217.103 211.57C217.239 212.26 217.994 213.68 217.648 214.33C217.302 214.979 216.905 215.141 216.905 215.141L207.92 215.286C207.428 215.293 207.751 214.978 208.146 214.687Z" fill="#F48C7F"/>
<path d="M221.782 152.263C221.782 152.263 224.903 156.97 225.645 160.866C226.388 164.763 225.1 176.733 226.529 181.838C227.303 184.602 230.235 188.869 230.681 192.44C231.127 196.011 232.677 206.316 232.677 206.316C232.911 207.398 233.28 208.736 233.756 209.358C234.048 209.739 234.581 210.221 234.932 210.908C235.477 211.98 235.176 213.575 234.774 214.454C234.567 214.904 234.788 214.903 234.318 215.049C232.926 215.479 231.446 214.754 230.854 213.419C230.523 212.672 230.233 211.677 230.174 210.422C230.113 209.093 229.904 208.036 229.683 207.255L219.71 182.79L212.489 161.675L210.64 150.801L221.782 152.263Z" fill="#F79C8D"/>
<path d="M230.584 212.717C232.742 213.111 234.18 211.845 234.926 210.899C235.475 211.972 235.742 213.573 235.338 214.455C234.984 215.232 233.944 215.209 233.126 215.239C232.262 215.271 231.592 214.79 231.163 214.035C230.963 213.683 230.757 213.243 230.584 212.717Z" fill="#13375B"/>
<path d="M212.179 212.41C214.555 213.021 216.312 212.605 217.294 212.208C217.547 212.928 217.883 213.831 217.705 214.352C217.487 214.989 217.176 215.134 216.903 215.141C214.732 215.198 208.952 215.276 207.297 215.297C207.066 215.299 206.938 215.029 207.087 214.851C207.497 214.36 212.002 212.518 212.179 212.41Z" fill="#13375B"/>
<path d="M219.759 182.329C219.573 182.342 219.385 182.354 219.196 182.365C219.186 182.365 219.176 182.366 219.166 182.366C218.981 182.377 218.796 182.388 218.609 182.397C218.598 182.398 218.587 182.398 218.575 182.398C218.388 182.408 218.2 182.416 218.012 182.425C218.003 182.425 217.993 182.426 217.984 182.426C217.793 182.435 217.601 182.442 217.411 182.448C215.281 182.518 212.65 182.491 210.962 182.204C210.102 173.589 209.781 165.728 209.462 163.987C208.69 159.766 210.135 153.106 210.135 153.106L210.018 151.524L210.388 150.515L221.976 151.976C221.976 151.976 225.221 156.683 225.993 160.579C226.765 164.474 225.426 176.445 226.912 181.551C226.915 181.552 223.606 182.068 219.759 182.329Z" fill="#13375B"/>
<path d="M203.979 125.106C203.979 125.106 212.655 124.199 215.215 125.054C217.775 125.911 219.574 129.569 218.206 131.616C216.84 133.662 204.526 130.982 204.526 130.982L203.979 125.106Z" fill="#EAB054"/>
<path d="M219.28 124.299C219.28 124.299 223.572 124.034 225.27 125.833C226.968 127.631 221.504 141.856 221.194 144.146C220.885 146.435 222.768 152.52 222.768 152.52C222.768 152.52 212.686 154.492 209.805 152.638C209.805 152.638 209.276 136.02 209.584 134.386C209.892 132.751 212.686 126.262 213.303 125.608C213.922 124.952 219.28 124.299 219.28 124.299Z" fill="#F7CC7F"/>
<path d="M217.852 118.726C217.852 118.726 217.874 118.849 217.914 119.058C218.106 120.061 218.842 123.386 219.341 124.301C219.942 125.405 217.281 128.93 214.72 128.5C213.958 128.372 215.364 125.262 215.297 124.933C215.168 124.302 214.993 123.441 214.812 122.56C214.71 122.063 214.608 121.558 214.511 121.083C214.238 119.735 214.014 118.633 214.014 118.633L217.852 118.726Z" fill="#F7A491"/>
<path opacity="0.5" d="M217.914 119.059C217.874 118.85 217.852 118.727 217.852 118.727L214.014 118.634C214.014 118.634 214.238 119.736 214.511 121.084C214.607 121.556 214.709 122.058 214.81 122.552C215.403 122.468 216.021 122.188 216.642 121.66C217.319 121.084 217.763 120.392 218.031 119.654C217.983 119.417 217.944 119.213 217.914 119.059Z" fill="#F47458"/>
<path d="M215.269 110.248C215.269 110.248 217.078 110.046 218.211 111.471C219.346 112.896 220.567 117.303 217.751 119.7C214.934 122.096 212.151 119.383 211.738 116.508C211.326 113.632 211.165 110.145 215.269 110.248Z" fill="#F7A491"/>
<path d="M210.905 116.465C211.241 117.1 211.806 117.452 212.165 117.251C212.525 117.049 212.545 116.372 212.208 115.736C211.872 115.101 211.307 114.749 210.948 114.95C210.588 115.151 210.568 115.83 210.905 116.465Z" fill="#F7A491"/>
<path d="M215.066 109.778C215.066 109.778 217.483 113.969 219.212 114.163C220.94 114.357 221.167 116.584 221.167 116.584C221.167 116.584 220.549 111.453 218.837 110.463C217.126 109.473 215.066 109.778 215.066 109.778Z" fill="#13375B"/>
<path d="M218.759 115.215C218.618 115.959 218.901 116.642 219.391 116.74C219.881 116.838 220.391 116.314 220.531 115.569C220.673 114.825 220.389 114.142 219.899 114.044C219.409 113.946 218.899 114.471 218.759 115.215Z" fill="#F7A491"/>
<path d="M216.383 117.152L213.913 117.506C213.913 117.506 214.105 118.435 215.195 118.311C216.526 118.16 216.383 117.152 216.383 117.152Z" fill="white"/>
<path d="M225.084 140.719C225.084 140.719 220.237 133.467 219.801 130.803C219.365 128.139 221.763 124.842 224.212 125.097C226.659 125.353 230.844 137.486 230.844 137.486L225.084 140.719Z" fill="#F7CC7F"/>
<path d="M129.406 90.9756C130.349 90.9756 131.228 90.9756 132.107 90.9756C132.25 90.9756 132.414 91.0161 132.534 90.9633C132.69 90.8946 132.813 90.7509 132.95 90.6405C132.81 90.5337 132.673 90.3385 132.528 90.3336C131.719 90.3029 130.907 90.3176 130.096 90.3176C129.885 90.3176 129.674 90.3176 129.432 90.3176C129.432 89.7136 129.432 89.1661 129.432 88.5474C130.368 88.5474 131.282 88.5548 132.194 88.5425C132.477 88.5389 132.914 88.6604 132.925 88.2234C132.937 87.763 132.493 87.8993 132.213 87.8956C131.298 87.8833 130.383 87.8907 129.435 87.8907C129.435 87.2855 129.435 86.7355 129.435 86.1046C130.346 86.1046 131.258 86.1144 132.169 86.0984C132.463 86.0935 132.943 86.2494 132.928 85.7645C132.914 85.2968 132.438 85.4576 132.144 85.4527C131.249 85.4368 130.352 85.4466 129.433 85.4466C129.433 84.8353 129.433 84.2865 129.433 83.6678C130.322 83.6678 131.181 83.6678 132.04 83.6678C132.202 83.6678 132.38 83.7034 132.523 83.6506C132.681 83.5905 132.809 83.4469 132.95 83.3401C132.81 83.232 132.674 83.0356 132.529 83.0295C131.756 82.9963 130.981 83.0111 130.206 83.0099C130.011 83.0099 129.816 83.0099 129.621 83.0099C129.75 80.9512 132.098 78.9797 134.552 78.8214C137.093 78.6581 139.586 80.5191 140.059 83.0099C139.245 83.0099 138.445 83.0086 137.644 83.0099C137.447 83.0099 137.237 82.9779 137.055 83.0344C136.914 83.0786 136.808 83.237 136.688 83.345C136.812 83.4506 136.93 83.6335 137.064 83.647C137.492 83.6887 137.927 83.6691 138.359 83.6703C138.952 83.6715 139.543 83.6703 140.187 83.6703C140.187 84.2669 140.187 84.8267 140.187 85.4478C139.336 85.4478 138.494 85.4478 137.652 85.4478C137.508 85.4478 137.348 85.4085 137.223 85.4564C137.032 85.5288 136.864 85.6614 136.686 85.7694C136.859 85.8811 137.027 86.0825 137.205 86.0898C138.014 86.1254 138.825 86.1058 139.635 86.1058C139.812 86.1058 139.988 86.1058 140.2 86.1058C140.2 86.7024 140.2 87.2511 140.2 87.8907C139.347 87.8907 138.491 87.8907 137.634 87.8907C137.454 87.8907 137.259 87.8465 137.098 87.9042C136.943 87.9594 136.825 88.1178 136.692 88.232C136.819 88.3338 136.94 88.5118 137.075 88.5241C137.503 88.5646 137.938 88.5462 138.37 88.5474C138.963 88.5487 139.557 88.5474 140.193 88.5474C140.193 89.1305 140.193 89.6793 140.193 90.3188C139.446 90.3188 138.68 90.3188 137.913 90.3188C137.643 90.3188 137.366 90.282 137.105 90.336C136.952 90.3679 136.827 90.541 136.688 90.6503C136.828 90.7583 136.964 90.9559 137.108 90.9609C137.935 90.9915 138.765 90.9768 139.594 90.978C139.788 90.978 139.982 90.978 140.228 90.978C140.228 92.3406 140.25 93.6505 140.221 94.9591C140.199 95.9252 140.241 96.922 140.023 97.85C139.551 99.8681 138.225 101.195 136.225 101.735C134.248 102.271 132.469 101.784 131.002 100.347C129.941 99.3084 129.399 98.0194 129.401 96.5181C129.408 94.6976 129.406 92.8795 129.406 90.9756Z" fill="#EAFCFC"/>
<path d="M131.707 105.656C132.328 105.871 132.978 106.002 133.613 106.172C133.613 108.434 133.613 112.895 133.613 115.131H136.021C136.021 112.882 136.021 108.416 136.021 106.131C136.322 106.072 136.573 106.035 136.817 105.974C140.62 105.014 143.09 102.681 144.112 98.8677C144.616 96.9907 144.368 95.0708 144.406 93.168C144.42 92.4106 143.942 91.9257 143.279 91.9233C142.602 91.9208 142.163 92.3812 142.148 93.1558C142.132 93.9647 142.138 94.7749 142.158 95.5851C142.206 97.5591 141.873 99.4115 140.63 101.031C138.804 103.408 135.673 104.464 132.814 103.625C129.871 102.76 127.754 100.197 127.56 97.1822C127.481 95.962 127.528 94.7344 127.505 93.5093C127.498 93.2061 127.497 92.8869 127.403 92.6058C127.236 92.1123 126.711 91.8545 126.18 91.9343C125.646 92.0153 125.249 92.4646 125.24 93.0846C125.22 94.2729 125.222 95.4624 125.235 96.6507C125.275 100.743 127.843 104.323 131.707 105.656Z" fill="#EAFCFC"/>
<path d="M191.216 29.8964L191.535 32.7382C191.62 32.8609 191.761 32.856 192.113 32.8474C192.743 32.8303 193.372 32.8143 194.002 32.8192C194.102 32.8204 194.24 32.915 194.291 33.0046C194.593 33.5422 194.863 34.0983 195.171 34.6323C195.267 34.7981 195.289 34.8975 195.175 35.0632C194.717 35.7249 194.277 36.3988 193.835 37.0617C194.27 37.6534 195.673 38.8 196.261 39.0369C196.794 38.4857 197.347 37.9308 197.878 37.3551C198.043 37.1759 198.155 37.1489 198.395 37.2385C198.951 37.4472 199.529 37.6055 200.106 37.7516C200.339 37.8105 200.479 37.8756 200.524 38.1432C200.645 38.8343 200.807 39.5181 200.939 40.208C200.975 40.3933 201.052 40.4854 201.242 40.4658C202.134 40.3725 203.026 40.2792 203.917 40.1859C204.137 40.1626 204.098 39.9907 204.098 39.8569C204.095 39.1756 204.098 38.4931 204.072 37.813C204.062 37.5576 204.146 37.4361 204.38 37.3269C205.003 37.0372 205.607 36.7069 206.264 36.3694C206.926 36.8076 207.658 37.2913 208.409 37.7884C209.195 37.0949 209.824 36.2883 210.349 35.3554C209.723 34.7453 209.095 34.1339 208.543 33.5963C208.758 32.8045 208.971 32.0753 209.143 31.3363C209.193 31.1227 209.275 31.0552 209.471 31.0184C210.151 30.8895 210.826 30.7385 211.505 30.6047C211.652 30.5752 211.753 30.5384 211.759 30.3628C211.79 29.4716 211.746 28.589 211.509 27.7211C211.456 27.5271 211.36 27.4842 211.182 27.4854C210.47 27.494 209.757 27.4891 209.045 27.5014C208.872 27.5038 208.785 27.4682 208.694 27.2951C208.382 26.6936 208.043 26.1044 207.691 25.525C207.601 25.3764 207.625 25.2942 207.704 25.1739C208.149 24.5024 208.588 23.8272 209.04 23.1373C208.334 22.3738 207.568 21.7133 206.654 21.1953C206.031 21.8336 205.413 22.4695 204.821 23.0759C204 22.8317 203.203 22.596 202.352 22.3431C202.226 21.7391 202.086 21.0431 201.934 20.3495C201.808 19.7799 201.914 19.8167 201.29 19.8216C201.23 19.8216 201.171 19.8008 201.111 19.7897C200.577 19.8499 200.043 19.91 199.509 19.969C199.394 20.0033 199.28 20.0573 199.161 20.0696C198.854 20.0991 198.727 20.2267 198.743 20.5619C198.776 21.2628 198.766 21.965 198.757 22.6672C198.755 22.7592 198.678 22.8881 198.597 22.9348C198.074 23.2417 197.522 23.5031 197.016 23.8358C196.769 23.9991 196.624 23.9733 196.403 23.8211C195.775 23.389 195.129 22.9827 194.426 22.5235C193.768 23.3313 193.126 24.1206 192.476 24.9173C192.614 25.056 192.691 25.137 192.771 25.2156C193.267 25.698 193.758 26.1854 194.261 26.6592C194.405 26.7943 194.407 26.9023 194.352 27.0852C194.161 27.7137 194.01 28.3545 193.822 28.9855C193.792 29.0837 193.666 29.1966 193.565 29.2212C193.013 29.3513 192.454 29.452 191.898 29.571C191.456 29.668 191.289 29.7049 191.216 29.8964ZM196.904 30.6255C196.619 28.0857 198.447 25.795 200.987 25.5102C203.527 25.2254 205.816 27.0533 206.101 29.5931C206.386 32.133 204.558 34.4237 202.018 34.7072C199.478 34.9945 197.189 33.1666 196.904 30.6255Z" fill="#96D9C9"/>
<path d="M55.7565 16.5489L56.8552 23.4282L60.5293 18.5916L72.7191 6.94437L61.8968 11.2875C61.8968 11.2875 56.6391 14.3589 56.4157 14.7272C56.1923 15.0967 55.7565 16.5489 55.7565 16.5489Z" fill="#50BFA5"/>
<path d="M49.6346 14.025L72.7191 6.94315L55.7565 16.5489L49.6346 14.025Z" fill="#96D9C9"/>
<path d="M65.1818 20.9829L57.6654 17.925L72.7191 6.94315L65.1818 20.9829Z" fill="#96D9C9"/>
<path d="M30.6183 49.9684C30.5311 49.4209 30.4722 48.8587 30.4452 48.2977C30.4206 47.7809 30.4206 47.253 30.4464 46.7288L31.0148 46.7571C30.989 47.2628 30.989 47.7723 31.0135 48.2707C31.0393 48.8108 31.0958 49.3522 31.1805 49.8788C31.205 50.0335 31.232 50.1881 31.2615 50.3428L30.703 50.4496C30.671 50.2863 30.6428 50.1243 30.6183 49.9684ZM31.0307 43.0522C31.3376 41.8959 31.7636 40.7199 32.2976 39.561L32.8144 39.7992C32.2939 40.9298 31.879 42.0739 31.5807 43.1983L31.0307 43.0522ZM47.9823 36.8027C47.9442 36.7916 47.9074 36.7806 47.8694 36.7695L48.0363 36.2257C48.0695 36.2355 48.1014 36.2453 48.1296 36.2527C48.1296 36.2527 48.1468 36.2552 48.1898 36.2539C48.5065 36.238 49.2872 36.0047 49.6469 35.6131C49.9489 35.2842 50.1453 34.8594 50.23 34.35L50.791 34.4433C50.6891 35.0546 50.4387 35.591 50.0655 35.9974C49.5671 36.54 48.6157 36.8014 48.218 36.8211C48.1235 36.8272 48.0461 36.8211 47.9823 36.8027ZM34.0935 36.3153C34.7527 35.2989 35.4966 34.2984 36.3044 33.3421L36.7389 33.7092C35.9472 34.647 35.218 35.6279 34.571 36.6259L34.0935 36.3153ZM44.5365 33.2022C44.3794 32.6805 44.2848 32.1219 44.2566 31.5437C44.2419 31.2332 44.2456 30.9103 44.2677 30.585L44.8348 30.6243C44.8139 30.9275 44.8102 31.227 44.825 31.5155C44.8508 32.0483 44.9367 32.5602 45.0815 33.0377C45.1834 33.3765 45.3221 33.7079 45.4928 34.0234L44.9932 34.2947C44.8029 33.9461 44.6494 33.5791 44.5365 33.2022ZM46.3238 29.6459L46.2453 29.6336L46.33 29.0714L46.4159 29.0849C47.7024 29.2936 48.9005 29.9209 49.7021 30.806L49.2811 31.1877C48.5642 30.3959 47.4864 29.8337 46.3238 29.6459ZM39.1978 30.9717C39.7477 30.6059 40.7543 29.9626 41.3252 29.7625C41.7683 29.6066 42.1796 29.479 42.581 29.3722L42.7271 29.9221C42.3404 30.0252 41.9426 30.1492 41.513 30.299C41.1386 30.4303 40.4094 30.8489 39.5108 31.4455L39.1978 30.9717ZM45.2104 26.9551C45.7162 25.8122 46.3889 24.7479 47.2114 23.7941L47.6423 24.1648C46.8566 25.0756 46.2134 26.0921 45.7309 27.1846L45.2104 26.9551Z" fill="#9BC1F9"/>
<path d="M50.3503 21.8361C50.8757 21.5071 51.422 21.2247 51.9731 20.9976L51.7559 20.4722C51.1752 20.7116 50.6007 21.0087 50.0483 21.3536L50.3503 21.8361Z" fill="#9BC1F9"/>
<path opacity="0.2" d="M158.14 180.111H110.996C107.947 180.111 105.474 177.639 105.474 174.589C105.474 171.54 107.947 169.068 110.996 169.068H158.14C161.189 169.068 163.662 171.54 163.662 174.589C163.662 177.639 161.189 180.111 158.14 180.111Z" fill="#3CB4C5"/>
<g opacity="0.5">
<path d="M98.9708 143.232H97.0865V152.919H98.9708V143.232Z" fill="#3CB4C5"/>
<path d="M102.365 144.443H100.481V151.707H102.365V144.443Z" fill="#3CB4C5"/>
<path d="M105.759 143.232H103.875V152.919H105.759V143.232Z" fill="#3CB4C5"/>
<path d="M109.154 138.771H107.269V157.082H109.154V138.771Z" fill="#3CB4C5"/>
<path d="M112.549 141.385H110.665V154.766H112.549V141.385Z" fill="#3CB4C5"/>
<path d="M143.225 138.771H141.341V157.082H143.225V138.771Z" fill="#3CB4C5"/>
<path d="M146.619 142.34H144.735V153.81H146.619V142.34Z" fill="#3CB4C5"/>
<path d="M149.778 145.399H147.893V150.752H149.778V145.399Z" fill="#3CB4C5"/>
<path d="M152.834 143.805H150.95V152.344H152.834V143.805Z" fill="#3CB4C5"/>
<path d="M155.958 139.305H154.074V156.846H155.958V139.305Z" fill="#3CB4C5"/>
<path d="M159.178 144.443H157.294V151.707H159.178V144.443Z" fill="#3CB4C5"/>
<path d="M162.514 142.34H160.629V153.81H162.514V142.34Z" fill="#3CB4C5"/>
<path d="M165.62 138.771H163.735V157.379H165.62V138.771Z" fill="#3CB4C5"/>
<path d="M168.672 142.34H166.788V153.237H168.672V142.34Z" fill="#3CB4C5"/>
<path d="M171.858 145.002H169.974V150.574H171.858V145.002Z" fill="#3CB4C5"/>
<path d="M174.937 146.142H173.052V149.435H174.937V146.142Z" fill="#3CB4C5"/>
<path d="M95.7275 145.399H93.8432V150.178H95.7275V145.399Z" fill="#3CB4C5"/>
<path d="M129.326 138.771H127.442V157.082H129.326V138.771Z" fill="#3CB4C5"/>
<path d="M132.721 141.385H130.836V154.766H132.721V141.385Z" fill="#3CB4C5"/>
<path d="M115.943 144.443H114.059V151.707H115.943V144.443Z" fill="#3CB4C5"/>
<path d="M119.337 145.399H117.453V150.752H119.337V145.399Z" fill="#3CB4C5"/>
<path d="M136.392 144.443H134.508V151.707H136.392V144.443Z" fill="#3CB4C5"/>
<path d="M139.786 142.34H137.902V153.81H139.786V142.34Z" fill="#3CB4C5"/>
<path d="M122.732 143.805H120.847V152.344H122.732V143.805Z" fill="#3CB4C5"/>
<path d="M126.126 142.34H124.242V153.81H126.126V142.34Z" fill="#3CB4C5"/>
</g>
<path d="M246.269 101.013L230.869 106.465C230.122 106.729 229.302 106.339 229.038 105.592L225.548 95.7349C225.285 94.9885 225.675 94.1685 226.421 93.9046L241.821 88.4529C242.568 88.189 243.388 88.5794 243.651 89.3257L247.142 99.1832C247.405 99.9295 247.015 100.75 246.269 101.013Z" fill="#50BFA5"/>
<path d="M227.826 100.405L224.43 107.844L230.623 104.197L227.826 100.405Z" fill="#50BFA5"/>
<path d="M232.403 97.8709L234.013 97.2546C234.013 97.2546 235.502 94.9898 235.369 94.4288C235.236 93.8678 234.488 92.8476 234.753 92.5898C235.018 92.3321 235.648 91.9761 236.33 92.5358C236.826 92.9422 237.255 94.9259 237.492 94.9836C237.639 95.0192 238.574 94.6915 239.254 94.441C239.701 94.2765 240.202 94.3735 240.554 94.6927L240.556 94.6939C240.794 94.91 240.849 95.2635 240.688 95.5422L240.436 95.9755L240.858 96.2505C241.172 96.4555 241.261 96.8741 241.059 97.1896L240.853 97.5112L241.129 97.6634C241.485 97.8586 241.592 98.3202 241.358 98.6516L241.169 98.9217L241.233 98.9781C241.497 99.2126 241.539 99.6104 241.328 99.8939L241.134 100.155L236.846 101.797C236.444 101.95 236.015 102.02 235.585 102.003L233.982 102.331C233.81 102.366 233.637 102.269 233.577 102.105L232.198 98.3312C232.129 98.1422 232.222 97.9409 232.403 97.8709Z" fill="white"/>
<path d="M32.4558 75.5658H2.63313C1.17846 75.5658 -1.52588e-05 76.748 -1.52588e-05 78.2076V95.6416C-1.52588e-05 97.1012 1.17846 98.2833 2.63313 98.2833H23.5007C24.8424 100.162 27.2742 103.525 27.4891 103.525C27.6904 103.525 27.3025 100.348 27.03 98.2833H32.4558C33.9105 98.2833 35.089 97.1 35.089 95.6416V78.2076C35.089 76.748 33.9105 75.5658 32.4558 75.5658Z" fill="#C0ECFF"/>
<path d="M50.0506 54.7192H87.7016C89.6903 54.7192 91.3021 56.3371 91.3021 58.3319V82.1727C91.3021 84.1687 89.6903 85.7854 87.7016 85.7854H62.2969C60.4629 88.3535 57.1362 92.9544 56.8428 92.9544C56.5678 92.9544 57.0969 88.6101 57.4701 85.7854H50.0506C48.062 85.7854 46.4502 84.1675 46.4502 82.1727V58.3319C46.4489 56.3359 48.062 54.7192 50.0506 54.7192Z" fill="#F47458"/>
<path d="M87.1111 66.9741H77.73H68.8068C68.7454 66.9741 68.6963 67.0232 68.6963 67.0845V68.495C68.6963 68.5564 68.7454 68.6055 68.8068 68.6055H77.73H78.1867H87.1099C87.1713 68.6055 87.2204 68.5564 87.2204 68.495V67.0845C87.2216 67.0244 87.1725 66.9741 87.1111 66.9741Z" fill="white"/>
<path d="M50.7001 68.6067H65.9723C66.03 68.6067 66.0779 68.5601 66.0779 68.5012V67.0784C66.0779 67.0207 66.0312 66.9728 65.9723 66.9728H50.7001C50.6424 66.9728 50.5945 67.0195 50.5945 67.0784V68.5012C50.5945 68.5601 50.6411 68.6067 50.7001 68.6067Z" fill="white"/>
<path d="M50.635 63.2742H70.9906C71.0483 63.2742 71.0962 63.2275 71.0962 63.1686V61.7458C71.0962 61.6881 71.0496 61.6403 70.9906 61.6403H50.635C50.5773 61.6403 50.5294 61.6869 50.5294 61.7458V63.1686C50.5294 63.2263 50.5761 63.2742 50.635 63.2742Z" fill="white"/>
<path d="M74.6807 63.2742H87.1161C87.1738 63.2742 87.2216 63.2275 87.2216 63.1686V61.7458C87.2216 61.6881 87.175 61.6403 87.1161 61.6403H74.6807C74.623 61.6403 74.5752 61.6869 74.5752 61.7458V63.1686C74.5752 63.2263 74.623 63.2742 74.6807 63.2742Z" fill="white"/>
<path d="M50.5294 79.0534H87.2216V77.4207H50.5294V79.0534Z" fill="white"/>
<path d="M69.7721 73.8915H87.222V72.2589H69.7721V73.8915Z" fill="white"/>
<path d="M50.5943 73.8915H68.0442V72.2589H50.5943V73.8915Z" fill="white"/>
<path d="M15.5066 90.1445C15.5066 90.9106 16.5083 91.5305 17.7445 91.5305C18.9807 91.5305 19.9824 90.9106 19.9824 90.1445C19.9824 89.3785 18.9807 88.7586 17.7445 88.7586C16.5096 88.7586 15.5066 89.3785 15.5066 90.1445Z" fill="#ADAEB5"/>
<path d="M17.7458 60.6938C23.319 60.6938 27.8364 65.2113 27.8364 70.7844C27.8364 73.8288 26.4873 76.559 24.355 78.4089C24.3477 78.4175 22.7788 80.1128 22.5198 81.8879L22.4732 82.9743C22.4572 83.3303 22.3185 83.6703 22.0779 83.9342C22.057 83.9576 22.0349 83.9796 22.0116 84.0017H13.48C13.4579 83.9796 13.4358 83.9576 13.4137 83.9342C13.1731 83.6703 13.0343 83.3303 13.0184 82.9743L12.9717 81.8879C12.7127 80.1116 11.1439 78.4163 11.1365 78.4089C9.00422 76.559 7.65511 73.8288 7.65511 70.7844C7.65511 65.2113 12.1726 60.6938 17.7458 60.6938Z" fill="#F7CC7F"/>
<path d="M14.5933 90.2992H20.8982C21.5254 90.2992 22.0337 89.791 22.0337 89.1637V84.003H13.4591V89.1637C13.4578 89.791 13.966 90.2992 14.5933 90.2992Z" fill="#544C60"/>
<path opacity="0.3" d="M15.2157 78.4985C20.7914 78.4985 25.3113 73.9786 25.3113 68.403C25.3113 66.1393 24.5661 64.0488 23.3079 62.3658C26.0356 64.1715 27.8352 67.2675 27.8352 70.7845C27.8352 73.8288 26.4861 76.559 24.3538 78.4089C24.3464 78.4175 22.7776 80.1128 22.5186 81.8879L22.4719 82.9743C22.4559 83.3303 22.3172 83.6703 22.0766 83.9342C22.0558 83.9576 22.0337 83.9797 22.0103 84.0018H13.4787C13.4566 83.9797 13.4345 83.9576 13.4124 83.9342C13.1718 83.6703 13.0331 83.3303 13.0171 82.9743L12.9705 81.8879C12.7115 80.1116 11.1426 78.4163 11.1353 78.4089C10.5951 77.9412 10.1065 77.4158 9.6769 76.845C11.2678 77.8897 13.1706 78.4985 15.2157 78.4985Z" fill="#EAB054"/>
<path d="M17.8157 75.6776L19.8216 66.9323L21.5807 72.0194L22.0963 71.8402L19.7148 64.9547L17.6684 73.8779L15.5729 68.7626L13.6321 72.039L14.1023 72.3177L15.4846 69.9853L17.8157 75.6776Z" fill="white"/>
<path d="M20.3433 85.3177L20.3911 85.3226C20.644 85.3484 20.8711 85.1643 20.8969 84.9114L22.2988 71.3713C22.3246 71.1184 22.1404 70.8913 21.8876 70.8655L21.8397 70.8606C21.5868 70.8348 21.3597 71.0189 21.3339 71.2718L19.932 84.812C19.9062 85.0649 20.0904 85.292 20.3433 85.3177Z" fill="#544C60"/>
<path d="M15.1175 85.3201C14.8511 85.3483 14.6117 85.1543 14.5847 84.8867L13.1877 71.3957C13.1595 71.1293 13.3535 70.8899 13.6211 70.8629C13.8875 70.8359 14.1268 71.0286 14.1538 71.2962L15.5508 84.7885C15.5778 85.0537 15.3839 85.293 15.1175 85.3201Z" fill="#544C60"/>
<path d="M13.2172 84.9519H22.2694C22.3393 84.9519 22.3946 84.8954 22.3946 84.8267V84.1282C22.3946 84.0582 22.3381 84.003 22.2694 84.003H13.2172C13.1473 84.003 13.092 84.0595 13.092 84.1282V84.8267C13.0908 84.8954 13.1473 84.9519 13.2172 84.9519Z" fill="#ADAEB5"/>
<path d="M13.2172 86.8546H22.2694C22.3393 86.8546 22.3946 86.7982 22.3946 86.7294V86.0322C22.3946 85.9622 22.3381 85.907 22.2694 85.907H13.2172C13.1473 85.907 13.092 85.9634 13.092 86.0322V86.7294C13.0908 86.7994 13.1473 86.8546 13.2172 86.8546Z" fill="#ADAEB5"/>
<path d="M13.2172 88.9845H22.2694C22.3393 88.9845 22.3946 88.928 22.3946 88.8593V88.1608C22.3946 88.092 22.3381 88.0356 22.2694 88.0356H13.2172C13.1473 88.0356 13.092 88.092 13.092 88.1608V88.8593C13.0908 88.928 13.1473 88.9845 13.2172 88.9845Z" fill="#ADAEB5"/>
<path d="M280.001 214.908H4.07677V216.042H280.001V214.908Z" fill="#F7CC7F"/>
</g>
<defs>
<clipPath id="clip0_14_442">
<rect width="280" height="216.041" fill="white"/>
</clipPath>
</defs>
</svg>
