<svg width="327" height="312" viewBox="0 0 327 312" fill="none" xmlns="http://www.w3.org/2000/svg">
<g opacity="0.5">
<path d="M89.0361 245.607H85.0546V274.536H89.0361V245.607Z" fill="#4D4D4D"/>
<path d="M96.2079 249.221H92.2264V270.917H96.2079V249.221Z" fill="#4D4D4D"/>
<path d="M103.38 245.607H99.3982V274.536H103.38V245.607Z" fill="#4D4D4D"/>
<path d="M110.551 232.284H106.57V286.968H110.551V232.284Z" fill="#4D4D4D"/>
<path d="M117.726 240.089H113.744V280.053H117.726V240.089Z" fill="#4D4D4D"/>
<path d="M182.541 232.284H178.56V286.968H182.541V232.284Z" fill="#4D4D4D"/>
<path d="M189.713 242.941H185.732V277.198H189.713V242.941Z" fill="#4D4D4D"/>
<path d="M196.387 252.077H192.405V268.065H196.387V252.077Z" fill="#4D4D4D"/>
<path d="M202.845 247.319H198.864V272.82H202.845V247.319Z" fill="#4D4D4D"/>
<path d="M209.446 233.879H205.465V286.264H209.446V233.879Z" fill="#4D4D4D"/>
<path d="M216.25 249.221H212.268V270.917H216.25V249.221Z" fill="#4D4D4D"/>
<path d="M223.297 242.941H219.316V277.198H223.297V242.941Z" fill="#4D4D4D"/>
<path d="M229.859 232.284H225.878V287.855H229.859V232.284Z" fill="#4D4D4D"/>
<path d="M236.31 242.941H232.329V275.486H236.31V242.941Z" fill="#4D4D4D"/>
<path d="M243.041 250.893H239.059V267.534H243.041V250.893Z" fill="#4D4D4D"/>
<path d="M249.546 254.295H245.564V264.131H249.546V254.295Z" fill="#4D4D4D"/>
<path d="M82.1834 252.077H78.202V266.349H82.1834V252.077Z" fill="#4D4D4D"/>
<path d="M153.175 232.284H149.193V286.968H153.175V232.284Z" fill="#4D4D4D"/>
<path d="M160.347 240.089H156.365V280.053H160.347V240.089Z" fill="#4D4D4D"/>
<path d="M124.897 249.221H120.916V270.917H124.897V249.221Z" fill="#4D4D4D"/>
<path d="M132.069 252.077H128.088V268.065H132.069V252.077Z" fill="#4D4D4D"/>
<path d="M168.104 249.221H164.123V270.917H168.104V249.221Z" fill="#4D4D4D"/>
<path d="M175.276 242.941H171.295V277.198H175.276V242.941Z" fill="#4D4D4D"/>
<path d="M139.241 247.319H135.26V272.82H139.241V247.319Z" fill="#4D4D4D"/>
<path d="M146.413 242.941H142.431V277.198H146.413V242.941Z" fill="#4D4D4D"/>
</g>
<path d="M67.3827 252.365C63.706 256.042 57.7192 256.061 54.2873 252.155C37.3935 232.927 25.8179 209.544 20.8029 184.333C15.1743 156.036 18.0631 126.705 29.104 100.05C40.1448 73.3954 58.8419 50.613 82.8307 34.5842C106.82 18.5554 135.023 10 163.874 10C192.725 10 220.928 18.5554 244.917 34.5842C268.906 50.613 287.603 73.3954 298.644 100.05C309.685 126.705 312.573 156.036 306.945 184.333C301.93 209.544 290.354 232.927 273.461 252.155C270.029 256.061 264.042 256.042 260.365 252.365C256.688 248.688 256.718 242.749 260.113 238.81C274.393 222.24 284.189 202.217 288.477 180.659C293.379 156.015 290.863 130.47 281.248 107.256C271.632 84.0417 255.348 64.2001 234.456 50.2403C213.564 36.2804 189.001 28.8294 163.874 28.8294C138.747 28.8294 114.184 36.2804 93.2918 50.2403C72.3994 64.2001 56.1158 84.0417 46.5001 107.256C36.8844 130.47 34.3685 156.015 39.2705 180.659C43.5588 202.217 53.3551 222.24 67.6352 238.81C71.0296 242.749 71.0593 248.688 67.3827 252.365Z" fill="url(#paint0_linear_1355_2)"/>
<g clip-path="url(#clip0_1355_2)">
<path d="M145.47 145.349C149.152 145.349 152.584 145.349 156.017 145.349C156.578 145.349 157.215 145.506 157.685 145.301C158.294 145.033 158.773 144.474 159.31 144.044C158.764 143.628 158.227 142.868 157.661 142.849C154.502 142.729 151.333 142.787 148.164 142.787C147.339 142.787 146.515 142.787 145.57 142.787C145.57 140.435 145.57 138.304 145.57 135.895C149.228 135.895 152.795 135.923 156.357 135.876C157.465 135.861 159.171 136.334 159.214 134.633C159.258 132.841 157.527 133.371 156.434 133.357C152.858 133.309 149.286 133.338 145.585 133.338C145.585 130.981 145.585 128.84 145.585 126.383C149.142 126.383 152.704 126.422 156.261 126.359C157.407 126.34 159.282 126.947 159.224 125.059C159.171 123.238 157.311 123.865 156.161 123.845C152.666 123.783 149.166 123.822 145.575 123.822C145.575 121.441 145.575 119.305 145.575 116.896C149.046 116.896 152.402 116.896 155.758 116.896C156.391 116.896 157.086 117.035 157.642 116.829C158.26 116.595 158.759 116.036 159.31 115.62C158.764 115.199 158.232 114.434 157.666 114.411C154.646 114.282 151.621 114.339 148.596 114.334C147.833 114.334 147.071 114.334 146.309 114.334C146.812 106.319 155.983 98.6428 165.567 98.0262C175.491 97.3906 185.227 104.636 187.073 114.334C183.895 114.334 180.769 114.329 177.643 114.334C176.871 114.334 176.051 114.21 175.342 114.43C174.791 114.602 174.378 115.218 173.908 115.639C174.393 116.05 174.853 116.762 175.375 116.815C177.049 116.977 178.746 116.901 180.433 116.905C182.749 116.91 185.06 116.905 187.572 116.905C187.572 119.228 187.572 121.408 187.572 123.826C184.249 123.826 180.961 123.826 177.672 123.826C177.111 123.826 176.488 123.673 175.999 123.86C175.251 124.142 174.594 124.658 173.899 125.079C174.575 125.513 175.232 126.297 175.927 126.326C179.086 126.465 182.255 126.388 185.419 126.388C186.11 126.388 186.795 126.388 187.624 126.388C187.624 128.711 187.624 130.847 187.624 133.338C184.293 133.338 180.951 133.338 177.605 133.338C176.9 133.338 176.138 133.166 175.51 133.39C174.906 133.605 174.445 134.222 173.923 134.666C174.421 135.063 174.891 135.756 175.419 135.804C177.092 135.962 178.789 135.89 180.476 135.895C182.792 135.899 185.112 135.895 187.596 135.895C187.596 138.165 187.596 140.301 187.596 142.792C184.681 142.792 181.689 142.792 178.693 142.792C177.638 142.792 176.555 142.648 175.538 142.858C174.939 142.983 174.45 143.657 173.908 144.082C174.455 144.503 174.987 145.272 175.548 145.291C178.779 145.411 182.02 145.353 185.256 145.358C186.014 145.358 186.771 145.358 187.735 145.358C187.735 150.663 187.821 155.763 187.706 160.858C187.62 164.62 187.783 168.501 186.934 172.114C185.088 179.972 179.911 185.138 172.101 187.241C164.378 189.325 157.431 187.433 151.702 181.836C147.56 177.792 145.441 172.774 145.451 166.928C145.479 159.84 145.47 152.762 145.47 145.349Z" fill="#51A09B"/>
<path d="M154.454 202.507C156.88 203.344 159.421 203.855 161.899 204.515C161.899 213.323 161.899 230.692 161.899 239.396H171.305C171.305 230.64 171.305 213.252 171.305 204.357C172.48 204.128 173.458 203.984 174.412 203.745C189.264 200.008 198.91 190.922 202.903 176.076C204.869 168.768 203.9 161.293 204.049 153.885C204.107 150.936 202.237 149.048 199.648 149.038C197.007 149.029 195.29 150.821 195.233 153.837C195.17 156.987 195.194 160.141 195.271 163.296C195.458 170.981 194.159 178.194 189.302 184.498C182.173 193.756 169.944 197.866 158.778 194.597C147.287 191.232 139.017 181.253 138.259 169.514C137.953 164.763 138.135 159.984 138.044 155.214C138.02 154.033 138.015 152.79 137.646 151.696C136.994 149.774 134.947 148.771 132.871 149.081C130.785 149.397 129.237 151.146 129.198 153.56C129.122 158.187 129.131 162.818 129.179 167.445C129.337 183.38 139.367 197.317 154.454 202.507Z" fill="#51A09B"/>
</g>
<defs>
<linearGradient id="paint0_linear_1355_2" x1="163.874" y1="10" x2="163.874" y2="301.748" gradientUnits="userSpaceOnUse">
<stop stop-color="#51A09B"/>
<stop offset="0.695096" stop-color="#1D3A38"/>
</linearGradient>
<clipPath id="clip0_1355_2">
<rect width="87.9874" height="106.511" fill="white" transform="translate(124.511 97.9874)"/>
</clipPath>
</defs>
</svg>
