<svg width="512" height="512" viewBox="0 0 512 512" fill="none" xmlns="http://www.w3.org/2000/svg">
<g opacity="0.5">
<path d="M170.658 279.607H166.676V308.536H170.658V279.607Z" fill="#4D4D4D"/>
<path d="M177.83 283.221H173.848V304.917H177.83V283.221Z" fill="#4D4D4D"/>
<path d="M185.001 279.607H181.02V308.536H185.001V279.607Z" fill="#4D4D4D"/>
<path d="M192.173 266.284H188.192V320.968H192.173V266.284Z" fill="#4D4D4D"/>
<path d="M199.347 274.089H195.366V314.053H199.347V274.089Z" fill="#4D4D4D"/>
<path d="M264.163 266.284H260.181V320.968H264.163V266.284Z" fill="#4D4D4D"/>
<path d="M271.335 276.941H267.353V311.198H271.335V276.941Z" fill="#4D4D4D"/>
<path d="M278.008 286.077H274.027V302.065H278.008V286.077Z" fill="#4D4D4D"/>
<path d="M284.467 281.319H280.486V306.82H284.467V281.319Z" fill="#4D4D4D"/>
<path d="M291.068 267.879H287.087V320.264H291.068V267.879Z" fill="#4D4D4D"/>
<path d="M297.871 283.221H293.89V304.917H297.871V283.221Z" fill="#4D4D4D"/>
<path d="M304.919 276.941H300.937V311.198H304.919V276.941Z" fill="#4D4D4D"/>
<path d="M311.481 266.284H307.5V321.855H311.481V266.284Z" fill="#4D4D4D"/>
<path d="M317.932 276.941H313.95V309.486H317.932V276.941Z" fill="#4D4D4D"/>
<path d="M324.662 284.893H320.681V301.534H324.662V284.893Z" fill="#4D4D4D"/>
<path d="M331.168 288.295H327.186V298.131H331.168V288.295Z" fill="#4D4D4D"/>
<path d="M163.805 286.077H159.824V300.35H163.805V286.077Z" fill="#4D4D4D"/>
<path d="M234.796 266.284H230.815V320.968H234.796V266.284Z" fill="#4D4D4D"/>
<path d="M241.968 274.089H237.987V314.053H241.968V274.089Z" fill="#4D4D4D"/>
<path d="M206.519 283.221H202.538V304.917H206.519V283.221Z" fill="#4D4D4D"/>
<path d="M213.691 286.077H209.709V302.065H213.691V286.077Z" fill="#4D4D4D"/>
<path d="M249.726 283.221H245.745V304.917H249.726V283.221Z" fill="#4D4D4D"/>
<path d="M256.898 276.941H252.916V311.198H256.898V276.941Z" fill="#4D4D4D"/>
<path d="M220.863 281.319H216.881V306.82H220.863V281.319Z" fill="#4D4D4D"/>
<path d="M228.034 276.941H224.053V311.198H228.034V276.941Z" fill="#4D4D4D"/>
</g>
<path d="M149.004 286.365C145.328 290.042 139.341 290.061 135.909 286.155C119.015 266.927 107.44 243.544 102.425 218.333C96.796 190.036 99.6848 160.705 110.726 134.05C121.767 107.395 140.464 84.613 164.452 68.5842C188.441 52.5554 216.644 44 245.496 44C274.347 44 302.55 52.5554 326.539 68.5842C350.528 84.613 369.225 107.395 380.266 134.05C391.306 160.705 394.195 190.036 388.567 218.333C383.552 243.544 371.976 266.927 355.082 286.155C351.65 290.061 345.664 290.042 341.987 286.365C338.31 282.688 338.34 276.749 341.734 272.81C356.014 256.24 365.811 236.217 370.099 214.659C375.001 190.015 372.485 164.47 362.869 141.256C353.254 118.042 336.97 98.2001 316.078 84.2403C295.185 70.2804 270.623 62.8294 245.496 62.8294C220.369 62.8294 195.806 70.2804 174.913 84.2403C154.021 98.2001 137.737 118.042 128.122 141.256C118.506 164.47 115.99 190.015 120.892 214.659C125.18 236.217 134.977 256.24 149.257 272.81C152.651 276.749 152.681 282.688 149.004 286.365Z" fill="url(#paint0_linear_1248_352)"/>
<path d="M100.757 462.761C86.6298 462.761 75.6144 458.069 67.711 448.683C59.9063 439.199 56.004 425.912 56.004 408.82C56.004 392.124 59.9063 379.183 67.711 369.995C75.6144 360.708 86.6298 356.065 100.757 356.065C114.885 356.065 125.851 360.708 133.655 369.995C141.559 379.183 145.51 392.124 145.51 408.82C145.51 425.912 141.559 439.199 133.655 448.683C125.851 458.069 114.885 462.761 100.757 462.761ZM100.757 446.46C108.167 446.46 113.551 443.497 116.91 437.569C120.368 431.543 122.096 421.96 122.096 408.82C122.096 395.977 120.417 386.691 117.058 380.961C113.699 375.231 108.265 372.366 100.757 372.366C93.2489 372.366 87.8153 375.231 84.4564 380.961C81.0974 386.691 79.4179 395.977 79.4179 408.82C79.4179 421.96 81.0974 431.543 84.4564 437.569C87.9141 443.497 93.3477 446.46 100.757 446.46ZM187.402 462.761C177.72 462.761 170.063 461.279 164.432 458.316C158.9 455.352 156.134 451.548 156.134 446.905C156.134 444.139 157.072 441.817 158.949 439.94C160.925 437.964 163.741 436.878 167.396 436.68C169.471 440.632 172.138 443.595 175.398 445.571C178.757 447.547 182.956 448.535 187.994 448.535C196.688 448.535 201.035 445.275 201.035 438.755C201.035 436.087 199.8 434.062 197.33 432.679C194.861 431.296 190.81 429.666 185.179 427.789C179.449 425.912 174.707 424.084 170.953 422.306C167.297 420.527 164.136 417.959 161.469 414.6C158.801 411.142 157.467 406.696 157.467 401.263C157.467 396.619 158.9 392.569 161.765 389.111C164.729 385.555 168.582 382.887 173.324 381.109C178.165 379.232 183.401 378.293 189.032 378.293C196.244 378.293 202.566 379.676 208 382.443C213.434 385.209 217.682 388.914 220.744 393.557C219.46 396.027 217.682 398.2 215.409 400.077C213.236 401.855 211.26 402.745 209.482 402.745C208.494 402.745 207.654 402.596 206.963 402.3C206.271 401.905 205.58 401.312 204.888 400.522C200.442 394.989 195.354 392.223 189.624 392.223C185.87 392.223 182.956 392.964 180.881 394.446C178.905 395.829 177.918 397.953 177.918 400.818C177.918 403.881 179.251 406.202 181.919 407.783C184.685 409.364 188.982 410.994 194.811 412.673C200.344 414.155 204.888 415.736 208.445 417.415C212.1 418.996 215.162 421.416 217.632 424.677C220.201 427.838 221.485 432.037 221.485 437.273C221.485 445.473 218.521 451.795 212.594 456.241C206.765 460.588 198.368 462.761 187.402 462.761ZM271.259 462.761C243.993 462.761 230.359 448.535 230.359 420.083C230.359 407.042 233.866 396.817 240.881 389.408C247.895 381.998 257.577 378.293 269.926 378.293C279.607 378.293 287.56 380.714 293.784 385.555C300.107 390.297 303.812 396.768 304.898 404.967C299.168 408.425 294.426 410.154 290.672 410.154C289.092 410.154 287.758 409.66 286.671 408.672C285.683 407.684 284.843 406.104 284.152 403.93C282.67 399.781 280.842 396.866 278.669 395.187C276.495 393.409 273.581 392.52 269.926 392.52C264.393 392.52 260.096 394.891 257.033 399.633C254.069 404.375 252.588 411.191 252.588 420.083C252.588 429.666 254.069 436.729 257.033 441.274C260.096 445.72 264.838 447.942 271.259 447.942C275.705 447.942 279.212 446.46 281.781 443.497C284.35 440.434 286.276 435.593 287.56 428.974C292.994 428.974 296.896 429.962 299.267 431.938C301.638 433.914 302.824 437.125 302.824 441.57C302.824 445.324 301.342 448.832 298.378 452.092C295.513 455.352 291.66 457.97 286.819 459.946C281.978 461.823 276.792 462.761 271.259 462.761ZM386.425 430.604C386.425 438.705 386.721 444.534 387.314 448.091C388.005 451.647 389.339 454.71 391.315 457.278C389.24 458.76 386.573 459.995 383.313 460.983C380.052 461.872 377.089 462.317 374.421 462.317C371.951 462.317 369.976 461.428 368.494 459.649C367.012 457.871 365.925 455.055 365.234 451.203C362.566 455.352 359.405 458.316 355.749 460.094C352.094 461.872 347.352 462.761 341.523 462.761C334.311 462.761 328.483 460.835 324.037 456.982C319.591 453.03 317.368 447.893 317.368 441.57C317.368 432.679 321.073 426.06 328.483 421.713C335.991 417.267 347.994 414.6 364.493 413.711V406.005C364.493 401.954 363.406 398.941 361.232 396.965C359.158 394.989 355.947 394.001 351.6 394.001C348.439 394.001 345.277 394.644 342.116 395.928C339.053 397.113 335.25 399.237 330.705 402.3C330.211 402.695 329.52 402.893 328.631 402.893C326.852 402.893 324.926 401.707 322.851 399.336C320.876 396.965 319.097 393.853 317.517 390C321.369 386.641 326.754 383.875 333.669 381.702C340.683 379.429 347.599 378.293 354.416 378.293C364.69 378.293 372.594 380.714 378.126 385.555C383.658 390.297 386.425 397.113 386.425 406.005V430.604ZM349.229 448.535C352.193 448.535 354.91 447.498 357.379 445.423C359.948 443.349 362.319 440.138 364.493 435.791V424.825C356.293 425.121 350.069 426.504 345.821 428.974C341.671 431.345 339.597 434.754 339.597 439.199C339.597 442.064 340.486 444.336 342.264 446.016C344.042 447.695 346.364 448.535 349.229 448.535ZM445.457 378.738C450.199 378.738 453.657 379.775 455.83 381.85C458.004 383.826 459.091 387.037 459.091 391.482C459.091 393.162 458.844 394.841 458.35 396.521C457.955 398.101 457.362 399.336 456.571 400.225C455.386 399.534 454.052 399.04 452.57 398.744C451.088 398.447 448.964 398.299 446.198 398.299C439.777 398.299 434.985 400.275 431.824 404.227C428.761 408.178 427.23 414.205 427.23 422.306V461.279H405.298V379.775H427.23V390.593C429.206 386.74 431.774 383.826 434.936 381.85C438.097 379.775 441.604 378.738 445.457 378.738Z" fill="#51A09B"/>
<g clip-path="url(#clip0_1248_352)">
<path d="M227.091 179.349C230.773 179.349 234.206 179.349 237.639 179.349C238.199 179.349 238.837 179.506 239.307 179.301C239.916 179.033 240.395 178.474 240.932 178.044C240.386 177.628 239.849 176.868 239.283 176.849C236.124 176.729 232.955 176.787 229.786 176.787C228.961 176.787 228.137 176.787 227.192 176.787C227.192 174.435 227.192 172.304 227.192 169.895C230.85 169.895 234.417 169.923 237.979 169.876C239.086 169.861 240.793 170.334 240.836 168.633C240.879 166.841 239.149 167.371 238.056 167.357C234.479 167.309 230.908 167.338 227.207 167.338C227.207 164.981 227.207 162.84 227.207 160.383C230.764 160.383 234.326 160.422 237.883 160.359C239.029 160.34 240.903 160.947 240.846 159.059C240.793 157.238 238.933 157.865 237.782 157.845C234.287 157.783 230.788 157.822 227.197 157.822C227.197 155.441 227.197 153.305 227.197 150.896C230.668 150.896 234.024 150.896 237.38 150.896C238.012 150.896 238.708 151.035 239.264 150.829C239.882 150.595 240.381 150.036 240.932 149.62C240.386 149.199 239.853 148.434 239.288 148.411C236.267 148.282 233.242 148.339 230.217 148.334C229.455 148.334 228.693 148.334 227.93 148.334C228.434 140.319 237.605 132.643 247.188 132.026C257.112 131.391 266.849 138.636 268.695 148.334C265.516 148.334 262.391 148.329 259.265 148.334C258.493 148.334 257.673 148.21 256.964 148.43C256.412 148.602 256 149.218 255.53 149.639C256.014 150.05 256.475 150.762 256.997 150.815C258.67 150.977 260.367 150.901 262.055 150.906C264.37 150.91 266.681 150.906 269.193 150.906C269.193 153.228 269.193 155.408 269.193 157.826C265.871 157.826 262.582 157.826 259.294 157.826C258.733 157.826 258.109 157.673 257.62 157.86C256.872 158.142 256.216 158.658 255.521 159.079C256.197 159.513 256.853 160.297 257.548 160.326C260.708 160.465 263.877 160.388 267.041 160.388C267.731 160.388 268.417 160.388 269.246 160.388C269.246 162.711 269.246 164.847 269.246 167.338C265.914 167.338 262.573 167.338 259.226 167.338C258.522 167.338 257.759 167.166 257.131 167.39C256.527 167.605 256.067 168.222 255.545 168.666C256.043 169.063 256.513 169.756 257.04 169.804C258.713 169.962 260.411 169.89 262.098 169.895C264.414 169.899 266.734 169.895 269.217 169.895C269.217 172.165 269.217 174.301 269.217 176.792C266.303 176.792 263.311 176.792 260.315 176.792C259.26 176.792 258.177 176.648 257.16 176.859C256.561 176.983 256.072 177.657 255.53 178.082C256.077 178.503 256.609 179.272 257.17 179.291C260.401 179.411 263.642 179.353 266.878 179.358C267.635 179.358 268.393 179.358 269.356 179.358C269.356 184.664 269.443 189.763 269.328 194.858C269.241 198.62 269.404 202.501 268.556 206.114C266.71 213.972 261.532 219.138 253.723 221.241C245.999 223.325 239.053 221.433 233.324 215.836C229.182 211.792 227.063 206.774 227.072 200.928C227.101 193.84 227.091 186.762 227.091 179.349Z" fill="#51A09B"/>
<path d="M236.076 236.507C238.501 237.344 241.042 237.855 243.521 238.515C243.521 247.324 243.521 264.692 243.521 273.396H252.927C252.927 264.64 252.927 247.252 252.927 238.357C254.101 238.128 255.079 237.984 256.033 237.745C270.886 234.008 280.531 224.922 284.525 210.076C286.49 202.768 285.522 195.293 285.671 187.885C285.728 184.936 283.859 183.048 281.27 183.038C278.628 183.029 276.912 184.821 276.854 187.837C276.792 190.987 276.816 194.141 276.893 197.296C277.08 204.981 275.78 212.194 270.924 218.498C263.795 227.756 251.565 231.866 240.4 228.597C228.908 225.232 220.638 215.253 219.881 203.514C219.574 198.763 219.756 193.984 219.665 189.214C219.641 188.033 219.636 186.79 219.267 185.696C218.615 183.775 216.568 182.771 214.492 183.081C212.407 183.397 210.858 185.146 210.82 187.56C210.743 192.187 210.753 196.818 210.801 201.445C210.959 217.38 220.988 231.317 236.076 236.507Z" fill="#51A09B"/>
</g>
<defs>
<linearGradient id="paint0_linear_1248_352" x1="245.496" y1="44" x2="245.496" y2="335.748" gradientUnits="userSpaceOnUse">
<stop stop-color="#51A09B"/>
<stop offset="0.695096" stop-color="#1D3A38"/>
</linearGradient>
<clipPath id="clip0_1248_352">
<rect width="87.9874" height="106.511" fill="white" transform="translate(206.133 131.987)"/>
</clipPath>
</defs>
</svg>
